<?xml version="1.0" standalone="no"?>
<!DOCTYPE svg PUBLIC "-//W3C//DTD SVG 20010904//EN"
 "http://www.w3.org/TR/2001/REC-SVG-20010904/DTD/svg10.dtd">
<svg version="1.0" xmlns="http://www.w3.org/2000/svg"
 width="600.000000pt" height="600.000000pt" viewBox="0 0 600.000000 600.000000"
 preserveAspectRatio="xMidYMid meet">

<g transform="translate(0.000000,600.000000) scale(0.100000,-0.100000)"
fill="#000000" stroke="none">
<path d="M0 3000 l0 -3000 3000 0 3000 0 0 3000 0 3000 -3000 0 -3000 0 0
-3000z m1153 1516 c99 -39 105 -40 119 -17 7 12 21 21 30 21 16 0 18 -13 18
-140 0 -129 -1 -140 -18 -140 -13 0 -23 15 -35 54 -69 219 -284 285 -362 113
-34 -76 -49 -197 -42 -356 8 -196 40 -287 113 -317 121 -51 259 45 295 204 10
39 17 52 31 52 17 0 18 -11 18 -145 0 -123 -2 -145 -15 -145 -9 0 -20 11 -25
25 -12 31 -15 31 -83 0 -108 -50 -237 -51 -330 -4 -86 44 -171 162 -196 270
-15 62 -13 165 3 224 66 251 274 381 479 301z m3251 -91 c55 -51 20 -135 -56
-135 -49 0 -78 28 -78 75 0 74 80 110 134 60z m-1987 -219 c22 -19 28 -32 28
-65 0 -55 -31 -86 -84 -86 -54 0 -81 26 -81 79 l-1 41 -24 -28 c-37 -41 -45
-88 -45 -254 l0 -153 50 0 c43 0 50 -3 50 -20 0 -19 -7 -20 -175 -20 -168 0
-175 1 -175 20 0 17 7 20 40 20 l40 0 0 214 0 215 -37 3 c-27 2 -39 8 -41 21
-3 15 8 17 117 17 l121 0 0 -37 0 -37 28 32 c56 65 138 82 189 38z m553 6 c19
-9 45 -32 57 -51 22 -32 23 -43 23 -227 l0 -194 40 0 c33 0 40 -3 40 -20 0
-19 -7 -20 -150 -20 -143 0 -150 1 -150 20 0 16 7 20 30 20 l30 0 0 194 c0
107 -3 202 -6 211 -4 9 -18 21 -31 26 -35 13 -78 -13 -114 -69 -29 -46 -29
-46 -29 -204 l0 -158 36 0 c28 0 35 -3 32 -17 -3 -16 -20 -18 -156 -21 -147
-2 -152 -2 -152 18 0 17 6 20 40 20 l40 0 -2 218 -3 217 -37 3 c-25 2 -38 8
-38 18 0 11 22 14 120 14 l120 0 0 -37 0 -37 34 33 c60 58 158 77 226 43z
m539 -29 c20 -14 44 -36 54 -47 27 -32 57 -97 57 -128 l0 -28 -155 0 -155 0 0
-79 c0 -96 13 -137 51 -156 76 -40 157 -5 203 88 27 54 56 76 56 42 0 -22 -45
-107 -67 -127 -58 -53 -175 -73 -256 -44 -124 45 -195 188 -158 321 46 170
241 253 370 158z m1380 0 c20 -14 44 -36 54 -47 27 -32 57 -97 57 -128 l0 -28
-155 0 -155 0 0 -79 c0 -96 13 -137 51 -156 76 -40 157 -5 203 88 27 54 56 76
56 42 0 -22 -45 -107 -67 -127 -58 -53 -175 -73 -256 -44 -124 45 -195 188
-158 321 46 170 241 253 370 158z m-3114 18 c23 -10 53 -33 68 -50 l27 -33 0
-172 c0 -126 4 -177 13 -190 11 -15 15 -15 24 -4 6 7 13 22 15 33 2 11 11 21
21 23 28 5 21 -43 -11 -79 -47 -53 -159 -51 -197 4 -13 19 -16 20 -33 4 -73
-66 -220 -61 -282 10 -24 27 -30 43 -30 81 0 93 60 144 185 157 33 3 80 8 104
11 l44 6 -5 74 c-3 48 -11 81 -20 90 -22 22 -86 28 -138 14 l-45 -12 28 -14
c34 -18 45 -59 26 -93 -12 -21 -23 -27 -61 -29 -39 -3 -49 1 -62 20 -36 51 -6
115 68 149 57 26 205 26 261 0z m2201 4 c32 -13 39 -13 64 0 76 39 165 -11
125 -71 -31 -48 -106 -19 -92 37 4 16 2 17 -14 8 -22 -12 -23 -16 -4 -49 8
-14 14 -51 15 -82 0 -47 -5 -62 -26 -88 -52 -62 -121 -81 -248 -69 -32 2 -43
-2 -63 -25 -41 -48 -22 -56 139 -56 170 0 200 -10 231 -79 39 -88 4 -214 -78
-277 -128 -97 -372 -52 -400 75 -8 39 18 96 56 118 l28 17 -30 33 c-25 29 -29
42 -29 89 0 50 3 59 34 90 19 19 42 34 53 34 15 1 15 3 -7 21 -43 36 -60 71
-60 124 0 101 78 165 203 165 37 0 84 -7 103 -15z m454 -230 l0 -235 40 0 c33
0 40 -3 40 -20 0 -19 -7 -20 -160 -20 -153 0 -160 1 -160 20 0 17 7 20 40 20
l40 0 0 215 0 215 -30 0 c-23 0 -30 4 -30 20 0 19 7 20 110 20 l110 0 0 -235z
m-3387 -724 l90 -263 92 263 93 264 136 3 c131 2 136 2 136 -18 0 -17 -6 -20
-40 -20 l-40 0 0 -364 0 -365 37 -3 c27 -2 39 -8 41 -20 3 -17 -10 -18 -157
-18 -154 0 -161 1 -161 20 0 16 7 20 35 20 l35 0 -1 348 c0 191 -3 343 -5 337
-2 -5 -60 -170 -128 -365 -102 -294 -127 -356 -143 -358 -18 -3 -35 39 -148
360 -70 200 -131 370 -136 378 -5 9 -8 -121 -6 -326 2 -371 3 -374 58 -374 22
0 29 -5 29 -20 0 -19 -7 -20 -100 -20 -91 0 -100 2 -100 19 0 12 9 20 29 24
48 10 51 37 51 398 l0 329 -40 0 c-34 0 -40 3 -40 20 0 20 5 20 146 18 l147
-3 90 -264z m1277 -116 l0 -385 40 0 c33 0 40 -3 40 -20 0 -19 -7 -20 -160
-20 -153 0 -160 1 -160 20 0 17 7 20 40 20 l40 0 0 365 0 365 -40 0 c-33 0
-40 3 -40 20 0 19 7 20 120 20 l120 0 0 -385z m340 0 l0 -385 40 0 c33 0 40
-3 40 -20 0 -19 -7 -20 -160 -20 -153 0 -160 1 -160 20 0 17 7 20 40 20 l40 0
0 365 0 365 -40 0 c-33 0 -40 3 -40 20 0 19 7 20 120 20 l120 0 0 -385z m1134
77 c58 -34 66 -66 66 -274 l0 -188 40 0 c33 0 40 -3 40 -20 0 -19 -7 -20 -156
-20 -143 0 -155 1 -152 18 2 11 14 18 36 20 l32 3 0 192 c0 211 -6 237 -56
237 -39 0 -63 -17 -95 -68 -29 -46 -29 -46 -29 -204 l0 -158 30 0 c23 0 30 -4
30 -20 0 -19 -7 -20 -156 -20 -143 0 -155 1 -152 18 2 12 14 18 41 20 l37 3 0
215 0 214 -40 0 c-33 0 -40 3 -40 20 0 19 7 20 125 20 l125 0 0 -36 0 -36 41
36 c66 56 163 67 233 28z m-1859 -1 c71 -32 145 -132 145 -196 l0 -25 -155 0
-155 0 0 -82 c0 -104 19 -148 71 -165 41 -13 95 -5 134 21 13 9 37 43 52 76
18 38 34 60 45 60 13 0 15 -5 9 -28 -20 -69 -65 -124 -128 -156 -51 -26 -163
-22 -222 9 -116 58 -166 188 -125 325 19 63 98 149 154 167 54 17 130 15 175
-6z m1200 -8 c47 -25 95 -74 121 -123 14 -26 19 -56 19 -115 0 -90 -19 -137
-76 -193 -55 -54 -94 -67 -194 -67 -100 0 -139 13 -194 67 -57 56 -76 103 -76
193 0 88 14 125 69 183 58 63 114 83 216 78 52 -2 87 -9 115 -23z m-2145 -673
c0 -17 -7 -20 -40 -20 l-40 0 0 -242 c0 -263 9 -351 43 -413 40 -73 155 -107
240 -71 43 17 93 76 106 123 16 56 15 575 -1 591 -7 7 -25 12 -40 12 -21 0
-28 5 -28 20 0 19 7 20 106 20 95 0 105 -2 102 -17 -2 -11 -14 -19 -30 -21
-51 -6 -53 -13 -58 -326 -5 -274 -6 -293 -27 -331 -50 -93 -125 -129 -268
-130 -84 0 -108 4 -150 23 -60 28 -109 73 -138 127 -21 38 -22 55 -25 338 l-3
297 -40 0 c-32 0 -39 3 -39 20 0 19 7 20 165 20 158 0 165 -1 165 -20z m3850
-160 l0 -120 195 0 c186 0 195 -1 195 -19 0 -14 -8 -21 -28 -23 l-29 -3 56
-127 c31 -70 58 -128 61 -128 9 0 90 204 90 226 0 23 -17 34 -51 34 -12 0 -19
7 -19 20 0 19 7 20 95 20 84 0 95 -2 95 -17 0 -10 -15 -25 -33 -33 -34 -16
-29 -6 -237 -500 -86 -203 -113 -240 -179 -240 -52 0 -91 34 -91 80 0 41 39
80 81 80 22 0 39 -9 60 -31 l28 -30 14 33 c8 18 24 56 37 85 l22 52 -103 240
-104 241 -77 0 -78 0 0 -199 c0 -169 2 -202 16 -215 17 -17 26 -15 62 17 32
30 49 9 21 -26 -58 -75 -193 -77 -243 -5 -13 19 -16 58 -16 225 l0 203 -30 0
c-23 0 -30 5 -30 19 0 14 10 21 35 25 71 14 155 123 155 204 0 22 5 32 15 32
13 0 15 -20 15 -120z m-2521 84 c35 -45 24 -96 -26 -122 -32 -17 -57 -15 -87
9 -33 26 -37 88 -6 119 31 31 93 27 119 -6z m2211 6 c29 -29 27 -84 -5 -115
-72 -73 -178 28 -114 109 26 33 88 37 119 6z m-669 -219 c20 -20 29 -39 29
-61 0 -42 -47 -90 -88 -90 -16 0 -41 9 -56 21 -20 16 -26 29 -26 62 l-1 42
-23 -29 c-37 -45 -46 -93 -46 -255 l0 -151 50 0 c43 0 50 -3 50 -20 0 -19 -7
-20 -176 -20 -162 0 -175 1 -172 18 2 12 14 18 41 20 l37 3 0 215 0 214 -40 0
c-33 0 -40 3 -40 20 0 19 7 20 120 20 l120 0 0 -37 0 -37 30 32 c61 67 143 81
191 33z m-1926 -1 c56 -35 65 -75 65 -285 l0 -185 40 0 c29 0 40 -4 40 -15 0
-13 -24 -15 -155 -15 -131 0 -155 2 -155 15 0 10 11 15 35 15 l35 0 0 193 c0
212 -6 240 -53 245 -39 5 -82 -30 -112 -91 -24 -51 -25 -60 -23 -198 l3 -144
33 -3 c20 -2 32 -9 32 -18 0 -12 -27 -14 -155 -14 -131 0 -155 2 -155 15 0 11
11 15 40 15 l40 0 0 220 0 220 -41 0 c-33 0 -40 3 -37 18 3 15 18 17 121 20
l117 3 0 -43 0 -42 33 31 c50 48 86 62 156 63 47 0 72 -5 96 -20z m1310 1 c72
-32 132 -109 150 -188 l7 -33 -162 0 -162 0 4 -87 c5 -110 23 -148 76 -164 80
-24 166 30 193 121 9 29 18 40 32 40 16 0 18 -5 12 -27 -37 -152 -207 -222
-355 -148 -57 29 -83 57 -111 120 -63 143 8 321 147 370 54 20 122 18 169 -4z
m910 7 c36 -10 50 -10 65 0 36 22 40 14 40 -73 0 -98 -15 -112 -45 -44 -10 22
-32 51 -48 65 -58 49 -187 22 -187 -40 0 -43 21 -56 115 -72 159 -27 200 -62
200 -169 0 -55 -5 -70 -30 -106 -17 -23 -46 -50 -65 -60 -40 -22 -123 -25
-182 -7 -31 9 -44 9 -59 0 -43 -27 -49 -18 -49 83 0 84 2 95 18 95 11 0 24
-16 35 -45 33 -80 114 -125 189 -105 42 12 56 26 64 66 9 49 -11 63 -116 80
-52 8 -109 24 -126 35 -95 58 -82 228 21 286 45 26 93 29 160 11z m-1815 -238
l0 -240 40 0 c29 0 40 -4 40 -15 0 -13 -24 -15 -160 -15 -133 0 -160 2 -160
14 0 10 13 16 38 18 l37 3 3 218 2 217 -40 0 c-33 0 -40 3 -40 20 0 19 7 20
120 20 l120 0 0 -240z m330 220 c0 -16 -7 -20 -31 -20 -21 0 -30 -4 -26 -12
33 -87 112 -247 117 -241 17 20 83 190 84 218 1 27 -2 30 -31 33 -25 2 -33 8
-33 23 0 17 8 19 90 19 83 0 90 -1 90 -20 0 -11 -6 -20 -13 -20 -29 0 -59 -53
-142 -250 -48 -113 -89 -211 -92 -218 -3 -7 -15 -12 -27 -10 -17 2 -40 46
-123 238 -92 213 -104 235 -127 238 -18 2 -26 9 -26 23 0 18 8 19 145 19 138
0 145 -1 145 -20z m1882 -217 l3 -238 38 -3 c24 -2 37 -8 37 -18 0 -12 -27
-14 -160 -14 -136 0 -160 2 -160 15 0 11 11 15 40 15 l40 0 0 220 0 220 -40 0
c-33 0 -40 3 -40 20 0 19 7 20 120 20 l120 0 2 -237z"/>
<path d="M3335 4165 c-21 -20 -25 -34 -25 -85 l0 -60 70 0 c70 0 70 0 70 28
-2 122 -56 177 -115 117z"/>
<path d="M4716 4166 c-22 -21 -26 -34 -26 -86 l0 -60 70 0 c70 0 70 0 70 28
-1 40 -16 112 -26 122 -5 5 -21 12 -36 15 -21 5 -33 1 -52 -19z"/>
<path d="M1621 3950 c-46 -11 -62 -31 -68 -83 -8 -64 11 -113 48 -126 70 -24
110 24 117 140 l5 79 -34 -1 c-19 -1 -49 -5 -68 -9z"/>
<path d="M3829 4171 c-21 -17 -23 -27 -24 -102 0 -107 8 -137 40 -145 48 -12
73 3 86 49 17 62 7 187 -17 204 -25 18 -58 16 -85 -6z"/>
<path d="M3738 3643 c-41 -47 -48 -94 -23 -143 36 -69 148 -85 247 -37 65 32
98 76 98 128 0 62 -5 64 -162 67 -129 3 -145 2 -160 -15z"/>
<path d="M1789 3174 c-7 -9 -15 -47 -17 -85 l-4 -69 71 0 71 0 0 49 c0 53 -14
101 -33 113 -21 14 -74 8 -88 -8z"/>
<path d="M2942 3165 c-12 -15 -24 -46 -28 -70 -10 -69 0 -286 15 -317 24 -49
97 -61 135 -23 28 29 38 95 34 236 -3 121 -6 141 -24 166 -17 22 -30 29 -66
31 -39 3 -49 -1 -66 -23z"/>
<path d="M3105 2200 c-13 -15 -20 -41 -23 -86 l-4 -64 71 0 71 0 0 58 c0 78
-16 106 -61 110 -25 2 -40 -3 -54 -18z"/>
</g>
</svg>
