<?xml version="1.0" standalone="no"?>
<!DOCTYPE svg PUBLIC "-//W3C//DTD SVG 20010904//EN"
 "http://www.w3.org/TR/2001/REC-SVG-20010904/DTD/svg10.dtd">
<svg version="1.0" xmlns="http://www.w3.org/2000/svg"
 width="2013.000000pt" height="1302.000000pt" viewBox="0 0 2013.000000 1302.000000"
 preserveAspectRatio="xMidYMid meet">

<g transform="translate(0.000000,1302.000000) scale(0.100000,-0.100000)"
fill="#000000" stroke="none">
<path d="M2370 10065 l0 -595 1775 0 1775 0 0 -1775 0 -1775 1775 0 1775 0 2
-1777 3 -1778 593 -3 592 -2 0 2370 0 2370 -1775 0 -1775 0 0 1780 0 1780
-2370 0 -2370 0 0 -595z"/>
<path d="M13734 7537 c-2 -7 -3 -74 -2 -148 l3 -134 178 -3 177 -2 0 150 0
150 -175 0 c-135 0 -177 -3 -181 -13z"/>
<path d="M14350 7280 l0 -180 -75 0 -75 0 0 -110 0 -110 74 0 75 0 4 -347 c4
-386 5 -395 69 -468 64 -72 122 -89 303 -90 83 0 158 3 168 7 15 7 17 23 17
137 l0 129 -80 4 c-67 3 -83 7 -102 26 -23 22 -23 26 -26 312 l-3 290 105 0
106 0 0 110 0 110 -105 0 -105 0 0 180 0 180 -175 0 -175 0 0 -180z"/>
<path d="M12450 7130 c-93 -17 -169 -63 -225 -137 l-35 -46 0 77 0 76 -175 0
-175 0 0 -560 0 -560 179 0 180 0 3 358 c3 343 4 359 25 397 29 55 64 85 109
95 77 18 147 -12 175 -73 17 -39 19 -70 19 -409 l0 -368 179 0 180 0 3 358 c3
343 4 359 25 397 29 55 64 85 109 95 77 18 147 -12 175 -73 17 -39 19 -70 19
-409 l0 -368 180 0 180 0 0 408 c0 444 -3 475 -57 575 -74 134 -237 199 -412
163 -92 -19 -143 -49 -213 -124 l-55 -60 -18 35 c-61 112 -228 181 -375 153z"/>
<path d="M2370 4730 l0 -2370 2368 2 2367 3 3 593 2 592 -1775 0 -1775 0 0
1775 0 1775 -595 0 -595 0 0 -2370z"/>
<path d="M13732 6543 l3 -558 178 -3 177 -2 0 560 0 560 -180 0 -180 0 2 -557z"/>
<path d="M15730 5570 c0 -154 -1 -280 -3 -280 -2 0 -26 22 -53 48 -28 27 -72
59 -100 73 -43 21 -62 24 -164 24 -138 -1 -193 -19 -285 -92 -144 -118 -213
-301 -202 -541 13 -306 163 -502 415 -543 148 -24 286 26 371 135 l31 39 0
-72 0 -71 175 0 175 0 0 780 0 780 -180 0 -180 0 0 -280z m-106 -437 c26 -19
51 -50 71 -88 29 -56 30 -64 30 -190 0 -126 -1 -134 -30 -190 -40 -78 -93
-117 -170 -123 -134 -11 -213 69 -236 237 -18 135 16 276 83 338 65 61 177 68
252 16z"/>
<path d="M16220 5705 l0 -145 185 0 185 0 0 145 0 145 -185 0 -185 0 0 -145z"/>
<path d="M12403 5426 c-61 -20 -106 -50 -162 -112 l-50 -55 -3 73 -3 73 -172
3 -173 2 0 -560 0 -560 179 0 180 0 3 353 c3 346 3 353 26 399 32 64 72 91
141 96 63 4 107 -17 138 -65 16 -25 18 -61 21 -405 l3 -378 179 0 179 0 3 353
3 352 25 49 c34 67 66 89 137 93 45 3 65 0 90 -16 69 -43 68 -34 71 -453 l3
-378 179 0 180 0 0 400 c0 255 -4 418 -11 452 -27 126 -95 219 -198 267 -50
23 -68 26 -166 26 -149 -1 -205 -22 -296 -115 l-65 -66 -30 44 c-36 53 -103
104 -167 126 -57 19 -184 20 -244 2z"/>
<path d="M14100 5424 c-200 -53 -352 -209 -405 -419 -19 -76 -19 -231 0 -314
49 -205 203 -362 410 -416 79 -21 261 -22 338 -1 142 39 280 145 337 259 50
101 56 97 -138 97 l-169 0 -32 -40 c-45 -56 -80 -72 -162 -72 -131 0 -210 67
-243 205 l-6 27 401 0 402 0 -6 98 c-6 115 -25 190 -72 290 -66 140 -204 251
-356 287 -80 18 -227 18 -299 -1z m248 -258 c54 -28 102 -96 117 -163 l7 -33
-221 0 -220 0 14 46 c19 65 59 120 102 143 46 25 160 28 201 7z"/>
<path d="M17100 5425 c-195 -44 -319 -164 -346 -335 l-7 -40 164 0 164 0 25
53 c32 67 68 88 153 89 108 2 157 -34 157 -115 0 -63 -49 -87 -240 -116 -234
-36 -320 -69 -394 -152 -49 -53 -66 -96 -73 -179 -13 -153 68 -288 202 -340
82 -31 218 -38 305 -16 72 19 149 64 183 108 l23 29 17 -60 17 -61 180 0 180
0 -20 33 c-19 30 -20 51 -20 377 0 190 -5 373 -10 407 -26 158 -111 254 -273
305 -84 27 -295 34 -387 13z m315 -793 c-9 -49 -79 -116 -137 -130 -66 -17
-117 -14 -165 7 -49 23 -63 45 -63 103 0 81 39 109 221 158 62 17 119 35 128
40 14 8 16 -1 19 -68 2 -42 0 -92 -3 -110z"/>
<path d="M16227 5404 c-4 -4 -7 -256 -7 -561 l0 -553 185 0 185 0 -2 558 -3
557 -176 3 c-96 1 -178 -1 -182 -4z"/>
<path d="M11840 3145 l0 -785 183 2 182 3 0 780 0 780 -182 3 -183 2 0 -785z"/>
<path d="M13550 3145 l0 -785 170 0 170 0 0 69 0 70 50 -53 c71 -75 147 -108
265 -114 244 -12 418 126 482 384 12 48 17 110 17 204 0 154 -14 222 -71 338
-90 183 -283 287 -475 254 -85 -15 -136 -40 -199 -99 l-49 -45 -2 278 -3 279
-177 3 -178 2 0 -785z m670 75 c46 -24 85 -78 106 -146 20 -68 19 -238 -3
-305 -34 -105 -129 -170 -227 -154 -76 13 -123 51 -167 135 -22 41 -24 58 -24
175 0 115 3 136 23 181 41 92 103 134 195 134 38 0 71 -7 97 -20z"/>
<path d="M12785 3509 c-224 -26 -376 -150 -404 -329 l-8 -50 167 0 168 0 5 29
c8 40 52 88 93 101 20 7 65 10 100 8 56 -3 69 -8 96 -35 23 -24 31 -40 32 -71
2 -75 -42 -97 -249 -127 -225 -32 -338 -80 -403 -170 -42 -57 -56 -109 -55
-196 1 -135 67 -240 183 -293 164 -75 378 -47 487 64 29 28 44 38 47 29 2 -8
10 -34 18 -59 l13 -45 178 -3 c97 -1 177 0 177 3 0 3 -8 18 -17 32 -16 24 -19
68 -23 423 -5 377 -7 397 -28 450 -57 143 -178 219 -382 240 -56 5 -107 9
-114 9 -6 -1 -42 -5 -81 -10z m255 -712 c0 -110 -15 -147 -79 -192 -37 -26
-53 -30 -120 -33 -58 -3 -86 0 -109 12 -70 36 -81 136 -23 188 18 16 62 36
103 48 40 12 105 32 143 44 39 13 73 24 78 25 4 0 7 -41 7 -92z"/>
</g>
</svg>
