<?xml version="1.0" standalone="no"?>
<!DOCTYPE svg PUBLIC "-//W3C//DTD SVG 20010904//EN"
 "http://www.w3.org/TR/2001/REC-SVG-20010904/DTD/svg10.dtd">
<svg version="1.0" xmlns="http://www.w3.org/2000/svg"
 width="340.000000pt" height="337.000000pt" viewBox="0 0 340.000000 337.000000"
 preserveAspectRatio="xMidYMid meet">

<g transform="translate(0.000000,337.000000) scale(0.100000,-0.100000)"
fill="#000000" stroke="none">
<path d="M1520 3349 c-319 -41 -609 -164 -859 -363 -101 -81 -251 -244 -329
-358 -125 -185 -213 -393 -264 -629 -19 -89 -22 -135 -22 -314 -1 -233 15
-344 75 -528 160 -493 568 -906 1059 -1070 202 -68 288 -81 540 -81 251 0 336
12 536 79 506 168 907 575 1068 1084 60 190 71 269 71 511 0 188 -3 230 -24
330 -31 152 -80 289 -152 432 -79 154 -161 269 -289 401 -270 281 -606 452
-988 502 -121 16 -315 18 -422 4z m378 -30 c563 -61 1061 -413 1307 -923 106
-220 152 -410 162 -661 14 -374 -89 -711 -313 -1027 -78 -110 -256 -286 -374
-371 -116 -82 -322 -186 -450 -227 -183 -58 -294 -75 -510 -75 -206 1 -287 11
-457 60 -826 238 -1330 1075 -1157 1923 49 242 185 524 348 717 354 423 899
644 1444 584z"/>
<path d="M1463 3088 c14 -97 26 -115 26 -38 -1 77 -6 100 -23 100 -9 0 -10
-15 -3 -62z"/>
<path d="M1504 3109 c-8 -14 23 -22 42 -11 14 8 13 10 -10 14 -15 3 -29 1 -32
-3z"/>
<path d="M2110 3101 c0 -17 -6 -21 -35 -21 -39 0 -42 -5 -19 -32 16 -17 15
-19 -21 -33 -42 -18 -41 -30 2 -20 33 7 88 54 97 83 4 11 0 24 -9 32 -13 10
-15 9 -15 -9z"/>
<path d="M1355 3070 c15 -17 17 -25 8 -39 -9 -14 -9 -21 -1 -29 9 -9 7 -17 -7
-32 -18 -19 -18 -20 3 -20 25 0 62 48 45 58 -6 4 -13 23 -15 42 -2 29 -8 36
-28 39 l-25 3 20 -22z"/>
<path d="M1506 3019 c3 -6 16 -8 28 -5 13 3 32 -1 45 -10 26 -19 40 -11 21 11
-15 18 -105 22 -94 4z"/>
<path d="M2125 2994 c14 -15 25 -35 25 -45 0 -11 5 -19 10 -19 16 0 12 22 -10
58 -11 17 -26 32 -34 32 -11 0 -8 -8 9 -26z"/>
<path d="M759 2931 c25 -35 26 -49 5 -79 -14 -21 -14 -22 6 -22 11 0 23 7 27
16 5 14 7 14 14 1 6 -9 3 -29 -6 -51 -18 -42 -18 -46 -5 -46 6 0 10 10 10 23
0 27 16 54 27 44 4 -4 2 -17 -6 -28 -11 -19 -10 -20 8 -14 24 7 25 1 10 -44
l-11 -32 -33 26 c-19 14 -40 25 -47 25 -7 0 15 -18 50 -41 56 -36 62 -42 56
-67 -4 -20 -3 -23 5 -12 5 8 13 32 16 52 8 43 14 46 41 17 15 -16 16 -22 5
-29 -10 -6 -8 -10 8 -15 36 -11 35 1 -3 48 -20 24 -36 49 -36 54 0 15 25 23
75 23 24 0 47 5 50 11 11 17 -3 23 -28 11 -36 -18 -91 -19 -94 -2 -9 68 -16
90 -28 90 -12 0 -12 -4 1 -27 15 -31 19 -73 6 -73 -10 0 -42 33 -42 44 0 4 -7
15 -16 23 -8 9 -13 24 -11 34 3 12 0 19 -9 19 -7 0 -21 11 -30 25 -9 14 -21
25 -26 25 -5 0 0 -13 11 -29z m117 -227 c-4 -14 -11 -22 -17 -18 -8 4 -7 10 0
17 6 6 11 20 12 32 0 11 3 14 6 7 3 -7 2 -24 -1 -38z"/>
<path d="M2636 2858 c-12 -28 -20 -38 -27 -31 -8 8 -7 18 1 33 6 12 9 24 6 27
-3 3 -10 -6 -15 -20 -5 -14 -15 -27 -22 -29 -15 -5 0 -33 17 -33 6 0 41 -9 78
-20 71 -22 90 -42 29 -30 l-38 6 35 -24 c25 -18 39 -22 48 -15 17 15 15 39 -5
53 -16 12 -14 15 20 31 43 21 46 29 15 45 -20 11 -21 10 -11 -3 15 -17 7 -28
-19 -28 -10 0 -18 -4 -18 -9 0 -10 -30 -24 -37 -17 -2 2 0 13 6 25 28 54 31
61 31 71 0 16 -19 11 -37 -10 -20 -23 -38 -27 -30 -5 4 8 2 17 -2 20 -5 3 -16
-14 -25 -37z m64 -11 c0 -21 -12 -28 -27 -16 -10 9 -13 8 -13 -5 0 -17 -15
-22 -24 -8 -7 12 7 29 29 35 33 8 35 8 35 -6z"/>
<path d="M1545 2846 c-261 -43 -474 -152 -656 -335 -196 -197 -308 -427 -340
-702 -32 -280 47 -588 210 -814 472 -652 1431 -660 1913 -15 182 244 263 580
213 890 -79 484 -445 864 -932 965 -106 22 -308 28 -408 11z m404 -31 c349
-67 666 -316 821 -647 233 -498 82 -1086 -365 -1423 -81 -61 -261 -149 -366
-179 -417 -119 -857 2 -1158 319 -457 482 -416 1242 91 1674 272 232 622 323
977 256z"/>
<path d="M1585 2759 c-541 -72 -955 -538 -955 -1074 0 -112 10 -217 21 -213 4
2 42 53 85 113 42 61 102 146 134 190 31 44 134 191 229 327 95 136 177 250
182 253 4 3 58 -45 118 -107 71 -73 113 -109 120 -103 7 8 117 193 200 337 9
16 21 28 26 27 6 0 57 -81 115 -180 58 -100 108 -182 111 -185 3 -2 55 46 115
106 60 61 112 110 116 110 3 0 138 -199 299 -441 l294 -442 8 39 c15 71 2 340
-22 428 -64 238 -220 467 -420 615 -109 81 -276 155 -421 186 -87 18 -269 26
-355 14z"/>
<path d="M1155 1494 c-87 -13 -179 -39 -255 -71 -83 -36 -189 -96 -201 -115
-7 -12 22 -88 34 -88 4 0 24 10 45 23 142 88 353 147 525 147 149 0 284 -35
512 -133 201 -86 229 -92 450 -92 178 1 197 2 295 29 161 44 165 47 189 111
20 53 25 75 18 75 -2 0 -31 -11 -65 -25 -34 -14 -108 -38 -165 -53 -95 -25
-116 -27 -292 -26 -222 1 -271 11 -454 93 -204 92 -314 121 -486 126 -66 2
-133 1 -150 -1z"/>
<path d="M1195 1304 c-116 -17 -280 -72 -360 -119 -73 -44 -70 -38 -40 -89 15
-25 29 -46 31 -46 2 0 40 18 83 40 150 76 254 101 421 101 118 0 234 -22 354
-68 46 -17 51 -21 62 -65 6 -26 9 -49 7 -52 -3 -3 -22 3 -42 13 -20 10 -79 33
-131 52 -82 28 -112 33 -218 37 -150 5 -267 -18 -394 -79 -45 -23 -85 -43 -87
-45 -3 -2 15 -24 39 -49 l43 -44 38 19 c217 111 489 111 734 1 55 -25 61 -31
72 -72 6 -24 10 -45 8 -48 -2 -2 -47 15 -100 38 -146 63 -223 81 -340 81 -55
0 -129 -7 -165 -15 -69 -17 -180 -56 -180 -65 0 -9 151 -106 206 -134 159 -78
293 -109 479 -110 182 0 307 25 460 94 l50 23 -115 12 c-63 7 -134 18 -156 24
-37 10 -43 15 -52 53 -6 23 -10 43 -9 44 1 2 38 -7 82 -18 55 -13 128 -21 235
-25 l155 -5 60 51 c33 29 61 55 63 60 2 5 -16 5 -40 0 -124 -24 -391 -5 -533
38 -58 18 -60 20 -73 67 -8 26 -12 49 -10 52 2 2 38 -10 79 -26 122 -47 232
-63 399 -58 93 3 170 12 213 23 67 17 69 19 112 83 25 36 43 67 42 68 -1 1
-38 -8 -82 -21 -171 -49 -404 -57 -580 -20 -44 9 -134 39 -200 67 -66 27 -171
68 -232 90 -103 36 -123 40 -235 43 -68 2 -136 1 -153 -1z"/>
<path d="M2521 2840 c-17 -15 -19 -20 -7 -20 8 0 20 9 26 20 13 25 11 25 -19
0z"/>
<path d="M2574 2760 c0 -11 6 -20 13 -20 7 0 13 -5 13 -10 0 -18 -30 -23 -57
-11 -19 9 -24 9 -21 -1 3 -7 14 -14 26 -16 12 -2 22 -7 22 -11 0 -17 -38 -41
-54 -35 -10 4 -16 1 -16 -9 0 -31 23 -28 59 7 39 38 71 41 71 6 0 -19 13 -33
23 -24 12 12 -8 46 -32 56 -15 6 -21 12 -13 15 6 3 12 11 12 19 0 8 5 14 10
14 19 0 10 17 -15 28 -35 16 -41 15 -41 -8z"/>
<path d="M310 2252 c0 -5 27 -18 60 -28 84 -27 82 -30 -32 -55 -34 -7 -58 -18
-58 -25 0 -7 30 -22 68 -35 37 -12 73 -24 80 -27 6 -2 12 0 12 6 0 6 -24 18
-52 27 -29 10 -57 21 -61 25 -5 4 26 16 69 26 43 11 79 24 81 29 2 6 -29 22
-69 35 -96 33 -98 33 -98 22z"/>
<path d="M2960 2221 c0 -5 15 -12 33 -16 72 -15 71 -13 43 -50 -26 -33 -33
-55 -18 -55 4 0 21 21 37 45 19 29 42 49 63 56 17 6 32 15 32 20 0 6 -9 7 -22
2 -28 -10 -93 -10 -135 -1 -18 4 -33 3 -33 -1z"/>
<path d="M255 2034 c-41 -44 -30 -101 25 -129 42 -22 77 -19 105 10 41 40 33
105 -16 130 -44 23 -86 19 -114 -11z m98 -5 c29 -16 37 -28 37 -61 0 -36 -39
-63 -77 -53 -61 15 -82 66 -43 105 23 23 51 25 83 9z"/>
<path d="M3040 1997 c0 -8 5 -39 11 -70 13 -61 31 -78 27 -25 -2 26 1 33 17
36 86 14 125 25 125 34 0 7 -14 8 -37 4 -123 -21 -123 -21 -123 8 0 14 -4 26
-10 26 -5 0 -10 -6 -10 -13z"/>
<path d="M210 1831 c0 -6 17 -11 38 -13 36 -3 37 -4 34 -38 -5 -47 -8 -50 -48
-50 -19 0 -34 -5 -34 -11 0 -8 16 -10 47 -6 26 3 57 0 70 -6 18 -8 27 -7 42 7
24 22 33 113 13 121 -24 9 -162 5 -162 -4z m134 -17 c20 -8 22 -80 4 -87 -26
-9 -48 13 -48 47 0 44 10 53 44 40z"/>
<path d="M3086 1771 c-11 -4 -15 -10 -10 -12 17 -8 164 2 164 12 0 11 -127 11
-154 0z"/>
<path d="M360 1640 c0 -26 -3 -30 -29 -30 -53 0 -121 -13 -121 -23 0 -6 28 -7
75 -2 l75 7 6 -31 c4 -17 11 -31 16 -31 6 0 7 7 4 16 -3 9 -6 40 -6 70 0 30
-4 54 -10 54 -5 0 -10 -13 -10 -30z"/>
<path d="M3082 1617 c-38 -45 -10 -116 40 -104 20 5 30 18 40 49 15 44 43 62
59 36 15 -24 10 -48 -17 -73 -25 -23 -25 -25 -7 -25 28 0 45 23 46 64 1 41
-17 66 -48 66 -27 0 -39 -13 -55 -63 -9 -30 -16 -38 -33 -35 -31 4 -36 52 -8
70 12 7 21 16 21 20 0 13 -27 9 -38 -5z"/>
<path d="M298 1483 c-81 -15 -111 -40 -38 -30 45 6 45 6 54 -45 l7 -38 -41 -6
c-22 -4 -39 -11 -38 -16 5 -13 4 -13 91 2 51 8 77 17 77 26 0 10 -9 12 -31 7
-36 -7 -49 6 -49 54 0 27 4 32 27 35 14 2 28 9 31 16 4 14 9 14 -90 -5z"/>
<path d="M3057 1387 c-23 -16 -50 -104 -35 -113 15 -10 152 -44 156 -39 9 9
-10 23 -38 29 -27 5 -30 8 -24 33 11 45 23 54 60 47 26 -5 34 -3 34 8 0 10
-13 14 -42 13 -28 0 -49 6 -60 18 -21 20 -29 21 -51 4z m48 -27 c3 -5 3 -26
-1 -45 -6 -32 -10 -36 -33 -33 -29 3 -36 23 -22 61 11 27 44 37 56 17z"/>
<path d="M335 1288 c-33 -11 -62 -22 -64 -24 -8 -7 30 -114 40 -114 12 0 12 0
-6 50 -17 49 -13 60 20 60 20 0 27 -8 36 -40 13 -43 35 -56 25 -15 -3 14 -9
36 -12 50 -4 14 -2 25 4 25 6 0 17 2 25 6 10 3 18 -8 27 -41 13 -45 30 -69 30
-42 0 7 -7 34 -16 60 -18 54 -22 55 -109 25z"/>
<path d="M2947 1115 l-27 -55 70 -35 c38 -19 73 -35 78 -35 4 0 20 25 35 55
15 30 22 55 17 55 -6 0 -20 -20 -32 -44 -21 -45 -21 -45 -50 -30 l-28 15 20
39 c22 43 24 50 12 50 -5 0 -16 -18 -26 -40 -18 -41 -29 -47 -56 -30 -12 8
-11 15 7 54 12 25 19 47 15 50 -5 3 -20 -20 -35 -49z"/>
<path d="M372 1103 c-54 -4 -64 -23 -12 -23 22 0 33 -7 44 -28 14 -27 13 -30
-7 -50 -11 -12 -18 -25 -14 -29 9 -9 127 107 127 124 0 13 -19 14 -138 6z m85
-40 c-23 -24 -29 -26 -37 -13 -19 29 -11 40 27 40 l38 0 -28 -27z"/>
<path d="M520 972 c-21 -17 -21 -19 -6 -62 11 -32 12 -48 4 -57 -16 -20 -36
-15 -55 13 -14 21 -14 29 -4 46 15 24 7 35 -14 18 -22 -18 -18 -44 11 -79 30
-36 54 -39 79 -11 17 19 17 23 2 61 -17 43 -14 69 8 69 26 0 47 -32 41 -62 -6
-30 8 -39 18 -12 11 28 6 44 -19 69 -29 30 -36 30 -65 7z"/>
<path d="M2860 952 c0 -5 18 -33 40 -63 23 -29 36 -55 30 -57 -6 -2 -31 3 -57
12 -52 18 -83 20 -83 7 0 -12 163 -52 174 -41 4 4 -13 39 -40 79 -45 65 -64
84 -64 63z"/>
<path d="M640 861 c0 -5 7 -14 15 -21 8 -7 15 -15 15 -19 0 -3 -25 -26 -55
-49 -50 -40 -67 -62 -47 -62 5 0 32 21 62 46 l54 46 18 -22 c22 -27 36 -20 17
8 -24 33 -68 82 -73 82 -3 0 -6 -4 -6 -9z"/>
<path d="M2710 759 c1 -18 117 -122 124 -111 5 8 -63 79 -106 111 -15 11 -18
11 -18 0z"/>
<path d="M701 679 l-55 -60 45 -45 c24 -24 45 -40 48 -33 2 6 -13 24 -33 41
l-37 30 22 24 23 24 33 -32 c18 -17 36 -28 40 -24 5 4 -7 21 -25 36 -30 25
-32 30 -20 49 17 27 19 27 53 -9 16 -16 36 -30 44 -30 9 0 -2 17 -29 45 -24
25 -47 44 -50 44 -3 -1 -29 -28 -59 -60z"/>
<path d="M2610 661 c0 -4 16 -28 35 -52 19 -24 31 -45 27 -47 -4 -1 -34 7 -67
18 -66 23 -85 25 -85 9 0 -13 92 -128 103 -128 16 -2 5 21 -29 59 -20 22 -34
43 -31 46 3 4 34 -3 68 -15 106 -35 110 -29 37 64 -41 51 -58 65 -58 46z"/>
<path d="M836 554 c-47 -64 -57 -107 -11 -50 23 29 24 29 50 12 35 -23 40 -39
20 -69 -11 -18 -13 -27 -5 -32 6 -4 12 -5 13 -4 1 2 8 14 15 26 6 13 12 30 12
38 0 8 4 15 9 15 16 0 41 31 41 51 0 16 -71 79 -90 79 -3 0 -28 -29 -54 -66z
m98 17 c48 -50 11 -84 -44 -42 -21 17 -23 22 -12 45 15 33 22 33 56 -3z"/>
<path d="M2407 522 c-4 -5 8 -36 26 -70 31 -59 31 -61 13 -81 -36 -40 -65 -24
-105 57 -12 23 -26 42 -31 42 -15 0 -13 -5 21 -65 35 -62 59 -80 95 -71 38 10
58 49 45 88 -16 47 -58 111 -64 100z"/>
<path d="M1000 453 c-19 -38 -36 -71 -38 -75 -2 -5 1 -8 7 -8 5 0 22 22 38 50
15 27 31 50 36 50 4 0 7 -28 7 -63 0 -37 6 -71 14 -82 12 -17 17 -12 53 59 22
42 37 79 32 82 -5 3 -21 -20 -36 -50 -15 -31 -31 -56 -35 -56 -4 0 -8 17 -9
38 0 56 -13 115 -24 119 -6 2 -26 -27 -45 -64z"/>
<path d="M1455 350 c-3 -5 -15 -10 -26 -10 -25 0 -25 -16 0 -23 17 -4 18 -9
10 -43 -11 -49 -11 -84 -1 -84 11 0 41 160 31 166 -4 2 -10 0 -14 -6z"/>
<path d="M1950 340 c-20 -20 -26 -40 -12 -40 4 0 13 9 20 20 15 24 47 26 56 4
8 -20 -1 -34 -20 -34 -8 0 -14 -4 -14 -10 0 -5 8 -10 19 -10 40 0 51 -50 14
-64 -9 -4 -26 0 -39 9 -31 20 -37 19 -22 -5 25 -40 108 -15 108 32 0 9 -7 21
-15 28 -9 8 -13 21 -9 32 7 23 -21 58 -48 58 -10 0 -27 -9 -38 -20z"/>
<path d="M1590 320 c-40 -40 -15 -96 38 -88 36 5 42 -10 16 -36 -20 -21 -41
-20 -53 1 -5 10 -13 15 -17 11 -9 -10 12 -35 36 -41 35 -9 62 24 67 80 5 42 2
54 -16 72 -26 26 -45 27 -71 1z m66 -26 c9 -36 -15 -60 -45 -45 -23 13 -28 40
-9 59 21 21 47 14 54 -14z"/>
<path d="M1780 322 c-14 -11 -21 -25 -18 -37 4 -18 6 -17 16 8 13 30 42 36 61
13 13 -15 -1 -56 -18 -56 -14 0 -61 -52 -61 -66 0 -10 15 -14 55 -14 30 0 55
5 55 10 0 6 -21 10 -47 10 l-48 0 48 43 c53 49 56 58 27 87 -25 25 -41 25 -70
2z"/>
</g>
</svg>
