<?xml version="1.0" standalone="no"?>
<!DOCTYPE svg PUBLIC "-//W3C//DTD SVG 20010904//EN"
 "http://www.w3.org/TR/2001/REC-SVG-20010904/DTD/svg10.dtd">
<svg version="1.0" xmlns="http://www.w3.org/2000/svg"
 width="744.000000pt" height="744.000000pt" viewBox="0 0 744.000000 744.000000"
 preserveAspectRatio="xMidYMid meet">

<g transform="translate(0.000000,744.000000) scale(0.100000,-0.100000)"
fill="#000000" stroke="none">
<path d="M3575 7424 c-724 -42 -1342 -242 -1905 -617 -211 -140 -467 -352
-621 -513 -630 -660 -984 -1474 -1039 -2394 -17 -269 4 -588 56 -868 277
-1501 1457 -2688 2959 -2976 249 -48 296 -51 700 -51 356 0 403 2 534 23 644
100 1207 337 1711 718 610 462 1078 1125 1301 1844 113 363 157 637 166 1025
10 457 -38 803 -168 1220 -81 257 -239 601 -382 832 -554 889 -1461 1507
-2492 1698 -232 43 -619 71 -820 59z m520 -140 c1061 -106 2025 -688 2624
-1582 341 -510 542 -1093 592 -1716 14 -175 6 -569 -16 -726 -109 -808 -451
-1511 -1010 -2075 -299 -302 -582 -507 -955 -693 -203 -102 -330 -153 -536
-217 -829 -257 -1735 -207 -2519 141 -1201 531 -2013 1659 -2136 2964 -16 171
-13 531 5 701 90 831 447 1579 1036 2169 768 769 1823 1144 2915 1034z"/>
<path d="M3415 7081 c-5 -10 3 -17 40 -36 17 -9 21 -24 26 -100 9 -121 11
-359 3 -380 -4 -9 -18 -21 -31 -26 -14 -5 -23 -15 -20 -22 5 -17 212 -13 212
5 0 7 -15 15 -33 19 -18 4 -36 10 -40 14 -4 3 -7 55 -7 113 0 105 1 107 24
110 51 8 68 -7 144 -120 81 -122 112 -148 175 -148 55 0 60 14 15 37 -29 14
-57 46 -117 135 l-79 116 35 31 c46 40 62 80 55 137 -5 51 -34 89 -84 110 -38
16 -308 20 -318 5z m269 -48 c70 -33 87 -142 31 -190 -21 -19 -38 -23 -91 -23
l-64 0 0 115 0 115 45 0 c24 0 60 -8 79 -17z"/>
<path d="M4117 7073 c-3 -5 10 -21 29 -36 31 -25 34 -33 34 -78 0 -61 -66
-365 -86 -396 -8 -13 -23 -23 -33 -23 -10 0 -24 -7 -31 -15 -10 -12 -7 -15 17
-21 15 -3 54 -13 86 -20 74 -19 90 -9 47 26 l-34 28 34 158 c18 88 36 168 40
178 5 15 40 -40 146 -225 84 -148 145 -244 154 -244 11 0 27 56 67 235 29 129
54 244 57 256 3 11 17 26 31 32 14 6 25 15 25 20 0 12 -168 47 -178 38 -4 -4
2 -14 13 -22 45 -33 55 -45 55 -71 0 -31 -66 -333 -75 -341 -7 -7 7 -30 -154
255 -79 139 -150 254 -159 257 -47 13 -81 16 -85 9z"/>
<path d="M3126 7040 c-15 -5 -91 -21 -167 -36 -140 -26 -174 -45 -109 -58 18
-3 34 -15 40 -28 15 -34 90 -398 90 -435 0 -22 -6 -36 -20 -43 -32 -17 -24
-33 13 -27 121 19 305 62 321 76 37 31 61 121 33 121 -7 0 -21 -14 -31 -31
-22 -38 -129 -90 -190 -92 l-41 -2 -23 104 c-12 57 -21 106 -18 108 9 10 136
33 149 27 8 -3 19 -16 25 -30 7 -13 16 -24 22 -24 13 0 13 29 1 83 -6 23 -13
55 -16 70 -7 33 -27 31 -35 -4 -7 -30 -60 -57 -119 -61 l-44 -3 -18 80 c-27
119 -26 122 22 135 22 6 66 12 97 13 52 2 57 0 70 -25 19 -41 32 -34 32 16 0
77 -13 87 -84 66z"/>
<path d="M2513 6870 c-46 -22 -139 -63 -209 -91 -69 -29 -128 -58 -131 -65 -7
-19 20 -107 35 -112 8 -2 12 9 12 38 l0 41 74 35 c41 19 78 34 83 34 10 0 184
-409 183 -431 0 -9 -9 -24 -20 -34 -42 -38 -3 -37 89 1 70 30 88 41 79 51 -6
7 -20 10 -32 7 -13 -3 -27 0 -34 8 -13 17 -182 408 -182 424 0 15 145 75 164
68 8 -3 17 -12 20 -20 6 -16 36 -19 36 -4 0 6 -9 29 -20 50 -26 50 -40 50
-147 0z"/>
<path d="M5210 6736 c0 -7 7 -19 15 -26 20 -17 19 -45 -4 -78 -43 -63 -131
-211 -150 -252 -25 -55 -27 -130 -5 -176 19 -40 92 -108 148 -136 56 -29 134
-35 179 -13 55 26 92 70 186 221 69 111 92 140 111 142 47 7 42 20 -21 61 -87
55 -113 54 -68 -3 26 -33 27 -31 -81 -205 -84 -136 -111 -165 -166 -180 -98
-27 -234 75 -234 176 0 52 7 67 113 241 78 127 83 132 115 132 37 0 40 16 7
34 -11 6 -43 26 -72 44 -59 35 -73 39 -73 18z"/>
<path d="M1940 6570 c-8 -5 -41 -20 -72 -34 -144 -62 -187 -194 -94 -285 48
-47 103 -51 215 -17 125 38 171 35 196 -15 25 -48 19 -91 -20 -136 -65 -76
-152 -90 -229 -38 -31 21 -38 23 -43 9 -8 -21 74 -104 102 -104 73 0 195 82
229 154 22 47 21 123 -4 164 -46 76 -124 89 -269 47 -106 -31 -126 -31 -156 0
-90 89 70 238 190 176 76 -40 85 -23 24 44 -44 48 -46 49 -69 35z"/>
<path d="M3430 6299 c-484 -59 -889 -221 -1275 -509 -454 -340 -789 -832 -939
-1384 -195 -712 -76 -1473 329 -2097 234 -360 585 -678 970 -880 566 -296
1224 -372 1843 -214 636 164 1191 567 1548 1127 286 448 432 1021 394 1547
-57 801 -446 1492 -1100 1956 -318 225 -689 374 -1096 441 -117 19 -557 28
-674 13z m600 -65 c636 -74 1249 -415 1653 -919 292 -364 467 -765 539 -1229
28 -186 30 -512 4 -691 -102 -704 -448 -1290 -1008 -1707 -466 -348 -1081
-530 -1652 -490 -462 33 -873 168 -1233 404 -359 236 -659 566 -861 948 -316
598 -376 1320 -163 1960 80 239 161 406 297 612 346 523 873 899 1479 1052
314 80 609 99 945 60z"/>
<path d="M3585 6093 c-102 -5 -165 -14 -165 -24 0 -5 7 -9 15 -9 26 0 33 -33
40 -192 7 -141 6 -158 -9 -164 -9 -3 -16 -11 -16 -17 0 -7 40 -8 123 -4 118 7
123 8 144 34 23 28 31 63 14 63 -5 0 -15 -7 -22 -17 -21 -25 -73 -43 -124 -43
l-45 0 0 44 c0 24 -3 57 -6 74 -6 30 -6 30 42 34 41 3 52 0 70 -19 12 -13 25
-23 29 -23 9 0 -2 120 -11 129 -4 3 -9 0 -11 -7 -10 -28 -36 -42 -79 -42 -40
0 -44 2 -44 24 0 13 -3 44 -6 69 l-6 45 46 7 c58 9 93 0 101 -25 11 -35 25
-21 25 25 0 41 -2 45 -22 43 -13 -1 -50 -3 -83 -5z"/>
<path d="M3207 6047 c-40 -11 -45 -30 -8 -35 26 -4 33 -20 67 -157 24 -93 24
-105 11 -137 -18 -42 -67 -68 -130 -68 -71 0 -94 30 -133 176 -28 104 -31 121
-18 135 30 33 22 34 -78 8 -43 -11 -49 -26 -14 -35 20 -5 27 -21 56 -127 29
-106 38 -127 70 -159 35 -35 42 -38 96 -38 82 0 159 37 179 84 21 49 19 87
-11 196 -16 58 -24 110 -21 133 6 41 2 43 -66 24z"/>
<path d="M4544 5910 c-36 -14 -64 -59 -64 -103 0 -37 6 -46 70 -108 77 -74 86
-100 47 -137 -60 -56 -176 11 -177 101 0 39 -17 33 -29 -10 -16 -55 -15 -59
25 -91 77 -64 171 -66 223 -6 55 62 41 112 -56 199 -59 52 -68 88 -33 120 46
42 150 -17 150 -85 0 -39 18 -48 30 -15 21 55 23 75 7 75 -8 0 -21 7 -28 17
-19 22 -88 53 -119 52 -14 0 -35 -4 -46 -9z"/>
<path d="M2598 5826 c-20 -7 -50 -24 -67 -37 -38 -30 -81 -112 -81 -154 0 -81
53 -164 127 -201 35 -17 50 -30 46 -40 -8 -21 6 -66 20 -61 7 2 11 15 9 29 -5
42 18 50 147 52 118 1 120 1 150 30 42 40 42 78 0 40 -12 -11 -33 -14 -77 -12
l-61 3 29 44 c25 36 30 54 30 100 -1 153 -135 256 -272 207z m85 -37 c46 -13
109 -67 131 -113 20 -42 21 -108 1 -146 -32 -61 -123 -88 -198 -57 -75 32
-136 139 -122 213 7 41 55 91 98 103 43 12 46 12 90 0z"/>
<path d="M4894 5765 c3 -8 8 -21 11 -27 3 -7 -27 -58 -65 -113 -86 -122 -98
-158 -72 -218 28 -64 118 -127 180 -127 54 0 116 59 207 198 19 29 38 45 57
49 37 7 33 15 -22 52 -49 33 -68 32 -45 -3 15 -23 13 -28 -46 -115 -34 -50
-75 -103 -91 -116 -74 -62 -198 3 -198 103 0 32 13 57 76 146 61 86 80 106 95
101 37 -12 19 20 -29 53 -53 35 -67 40 -58 17z"/>
<path d="M2219 5584 l-23 -25 47 -161 c26 -89 45 -163 43 -166 -2 -2 -71 24
-152 57 -81 34 -152 61 -158 61 -6 0 -25 -12 -41 -27 l-30 -28 42 -6 c51 -6
64 -18 160 -137 60 -75 74 -98 69 -117 -10 -38 6 -36 52 6 49 46 53 61 14 53
-26 -5 -36 2 -100 72 -39 43 -69 80 -67 82 3 3 195 -69 257 -96 15 -7 7 35
-31 163 -22 71 -38 131 -36 134 3 2 41 -34 85 -80 50 -53 80 -92 80 -106 0
-13 3 -23 6 -23 9 0 78 61 88 78 7 12 4 14 -21 9 -27 -5 -39 3 -143 108 -99
99 -112 116 -106 138 9 36 -7 41 -35 11z"/>
<path d="M3470 5496 c-210 -31 -364 -78 -557 -172 -351 -171 -639 -457 -816
-809 -194 -386 -243 -825 -138 -1246 166 -667 721 -1197 1391 -1327 158 -31
191 -34 365 -34 487 1 931 187 1272 531 257 260 415 556 493 926 27 129 38
411 21 551 -38 310 -156 609 -338 859 -73 101 -275 304 -373 376 -229 169
-500 286 -770 334 -130 22 -427 28 -550 11z m451 -56 c184 -21 448 -104 609
-192 496 -271 822 -734 905 -1286 18 -119 20 -362 4 -483 -76 -587 -462 -1109
-1004 -1357 -550 -251 -1197 -199 -1696 137 -200 134 -348 283 -484 486 -263
392 -352 877 -248 1345 132 597 576 1084 1160 1276 92 30 265 68 353 77 77 8
320 6 401 -3z"/>
<path d="M3591 5149 c-1 -91 -4 -214 -8 -273 l-6 -107 -50 3 -49 3 -50 130
c-27 72 -60 159 -73 195 -40 109 -66 169 -60 135 3 -16 21 -124 40 -240 20
-115 38 -216 40 -222 5 -16 -22 -31 -71 -38 -39 -6 -39 -5 -73 52 -80 135
-216 352 -219 348 -2 -1 8 -32 22 -67 50 -125 126 -332 126 -341 0 -6 -33 -8
-85 -5 l-86 6 -77 83 c-133 144 -165 175 -150 149 8 -14 38 -64 66 -111 29
-48 52 -90 52 -94 0 -7 -27 -2 -72 11 -15 5 -18 -5 -20 -87 l-3 -92 -120 90
c-162 120 -162 120 -65 14 47 -51 108 -118 137 -149 l52 -57 1 -82 0 -82 -177
85 c-194 94 -263 125 -263 120 0 -2 99 -77 220 -166 l220 -162 0 -44 c0 -24
-2 -44 -4 -44 -2 0 -131 34 -287 74 -156 41 -285 74 -286 72 -2 -1 48 -27 110
-56 61 -30 182 -87 267 -128 85 -41 165 -78 178 -83 16 -6 22 -17 22 -40 l0
-31 -62 6 c-60 6 -247 19 -478 33 -58 3 -103 3 -100 1 3 -3 148 -43 323 -88
292 -77 317 -85 317 -105 0 -20 -12 -22 -312 -59 -172 -21 -326 -41 -343 -45
-21 -5 11 -10 100 -15 72 -4 222 -14 335 -22 113 -7 208 -14 213 -14 4 0 7
-10 7 -23 0 -19 -13 -26 -102 -55 -306 -98 -548 -181 -513 -177 99 13 601 75
608 75 4 0 7 -15 7 -32 -1 -33 -4 -35 -265 -177 -146 -80 -263 -146 -261 -149
3 -2 96 26 208 63 112 36 229 75 261 85 l57 19 0 -54 0 -54 -200 -167 c-111
-91 -199 -168 -197 -170 2 -2 90 37 196 87 168 81 193 90 204 76 18 -23 195
-58 327 -64 103 -5 127 -3 225 22 94 23 124 26 206 22 67 -3 111 -11 144 -26
41 -18 50 -19 73 -7 82 42 260 45 406 7 98 -26 219 -27 364 -4 84 14 106 21
110 35 2 10 6 18 8 18 2 0 73 -42 157 -93 189 -116 215 -129 165 -85 -20 18
-102 92 -182 163 l-146 130 0 61 0 61 257 -93 c141 -52 257 -93 258 -92 2 2
-114 73 -256 158 -256 154 -259 155 -259 189 l0 34 53 -7 c28 -4 162 -25 296
-47 134 -22 248 -38 254 -36 6 2 -68 31 -164 65 -395 141 -434 158 -437 185
l-3 25 298 6 c164 4 312 10 328 15 29 7 28 8 -20 15 -54 8 -519 82 -573 91
-27 5 -33 10 -30 28 3 20 27 27 327 94 177 39 326 75 330 78 3 4 -23 4 -59 1
-36 -3 -186 -8 -333 -12 l-269 -6 4 27 c3 25 15 33 128 82 389 168 456 197
463 203 6 5 -109 -19 -476 -102 -59 -14 -109 -22 -112 -20 -3 3 -5 22 -5 42 0
35 4 40 73 85 96 64 389 266 402 277 5 5 -69 -26 -165 -68 -96 -42 -204 -89
-240 -104 l-65 -29 -3 72 -3 71 153 153 c84 84 149 153 144 153 -5 0 -67 -41
-138 -91 -71 -49 -136 -93 -144 -96 -12 -4 -14 13 -14 100 0 98 -1 106 -20
109 -18 3 -13 14 46 103 l66 100 -115 -114 -115 -114 -96 -5 c-53 -2 -96 -2
-96 2 0 6 156 380 168 401 19 37 -31 -36 -143 -202 -70 -106 -131 -193 -135
-193 -3 0 -30 7 -59 16 -41 12 -51 19 -47 32 8 25 96 449 96 459 0 4 -37 -77
-81 -182 -44 -104 -88 -210 -99 -235 -17 -42 -21 -45 -66 -52 -26 -4 -51 -5
-55 -2 -4 2 -6 122 -3 267 l4 262 -35 -155 c-33 -148 -50 -227 -76 -352 -13
-63 -24 -72 -66 -56 -29 11 -29 11 -67 238 -21 126 -44 255 -51 287 -12 56
-13 52 -14 -108z m97 -434 l42 -17 0 -885 c0 -839 -1 -885 -17 -878 -10 4 -49
14 -88 22 -84 18 -181 12 -292 -17 -122 -32 -309 -24 -472 20 l-41 11 0 879
c0 510 4 880 9 880 5 0 44 -8 87 -17 121 -26 346 -24 444 5 63 19 92 22 180
18 66 -3 121 -11 148 -21z m422 10 c139 -32 228 -39 345 -27 60 7 122 15 138
18 l27 6 0 -886 0 -886 -22 -5 c-148 -32 -317 -34 -433 -5 -117 30 -225 35
-315 16 -41 -9 -78 -16 -82 -16 -5 0 -8 394 -8 875 l0 874 23 13 c66 36 221
47 327 23z"/>
<path d="M2986 4457 c-14 -10 -17 -21 -12 -40 6 -27 26 -38 26 -16 0 7 8 18
18 25 15 12 15 14 2 28 -14 14 -19 14 -34 3z"/>
<path d="M3270 4440 c-25 -25 -26 -40 -1 -40 30 0 55 29 40 46 -15 18 -15 18
-39 -6z"/>
<path d="M3129 4417 c0 -1 -2 -22 -3 -47 -1 -31 -11 -62 -34 -98 -38 -62 -38
-62 -12 -62 12 0 25 13 37 38 l18 37 3 -38 c3 -30 7 -37 20 -35 18 4 18 8 7
130 -4 44 -11 68 -21 72 -8 3 -14 4 -15 3z"/>
<path d="M3464 4375 c-20 -30 -22 -88 -5 -109 14 -17 58 -21 77 -8 31 20 44
86 24 123 -16 29 -75 26 -96 -6z m74 -28 c4 -35 -14 -67 -38 -67 -16 0 -20 7
-20 32 0 33 26 71 44 65 6 -2 12 -15 14 -30z"/>
<path d="M3322 4368 c3 -12 12 -45 19 -71 12 -43 12 -52 -3 -78 -17 -28 -16
-29 4 -29 26 0 58 27 52 44 -2 6 7 40 21 75 13 35 22 68 19 72 -11 18 -25 8
-41 -28 l-15 -38 -12 35 c-13 41 -52 58 -44 18z"/>
<path d="M3619 4376 c-32 -15 -38 -60 -10 -78 26 -16 27 -28 2 -28 -25 0 -37
-18 -22 -33 14 -14 81 16 81 36 0 8 -9 26 -20 40 -11 14 -20 28 -20 31 0 3 9
6 20 6 22 0 27 25 6 33 -7 3 -24 0 -37 -7z"/>
<path d="M2955 4363 c-32 -7 -55 -44 -55 -91 0 -35 4 -44 24 -53 55 -26 101
19 94 91 -3 36 -31 59 -63 53z m36 -35 c5 -55 -11 -88 -44 -88 -17 0 -19 5
-14 36 3 20 11 42 18 50 14 17 39 18 40 2z"/>
<path d="M3211 4344 c-27 -34 -28 -95 -2 -118 23 -21 65 -13 86 17 18 26 20
98 3 115 -21 21 -65 14 -87 -14z m69 -35 c0 -41 -16 -69 -40 -69 -25 0 -27 45
-4 78 22 32 44 28 44 -9z"/>
<path d="M3216 4008 c-16 -36 -8 -45 24 -28 13 7 20 19 18 32 -5 35 -27 32
-42 -4z"/>
<path d="M3491 3951 c-7 -5 -22 -6 -33 -3 -18 4 -19 -1 -16 -73 3 -91 22 -112
31 -35 7 58 16 78 26 61 4 -6 4 -43 -1 -82 -9 -78 -6 -91 19 -67 10 11 17 41
21 86 7 106 -6 139 -47 113z"/>
<path d="M3100 3913 c0 -23 -13 -60 -34 -99 -28 -50 -32 -63 -20 -68 13 -5 52
42 55 69 1 6 4 -6 8 -25 4 -21 12 -36 23 -38 17 -3 18 26 2 156 -7 55 -34 59
-34 5z"/>
<path d="M3320 3920 c-17 -17 -20 -33 -20 -120 0 -55 4 -100 8 -100 17 0 32
25 32 52 0 19 5 28 15 28 28 0 65 47 65 82 0 69 -57 101 -100 58z m68 -64 c-2
-34 -7 -42 -25 -44 -21 -3 -23 0 -23 46 0 52 13 69 38 49 8 -6 12 -26 10 -51z"/>
<path d="M3226 3923 c-4 -5 -18 -8 -29 -8 -20 0 -22 -6 -25 -54 -4 -68 4 -101
23 -101 11 0 15 12 15 44 0 51 8 76 23 76 6 0 8 -29 3 -85 -6 -85 2 -107 24
-65 16 30 23 141 11 173 -10 26 -30 35 -45 20z"/>
<path d="M3600 3917 c-32 -16 -37 -48 -10 -72 25 -23 26 -35 1 -35 -23 0 -36
-29 -17 -36 8 -3 28 2 45 11 36 18 40 47 11 72 -11 10 -20 21 -20 25 0 5 9 8
20 8 13 0 20 7 20 20 0 23 -14 25 -50 7z"/>
<path d="M2917 3893 c-13 -12 -7 -33 8 -33 23 0 18 -28 -11 -57 -27 -27 -25
-57 3 -51 11 2 27 25 40 58 l22 55 -2 -55 c-2 -49 0 -55 18 -55 17 0 19 6 16
53 -2 46 0 52 17 52 20 0 36 23 25 34 -9 8 -128 8 -136 -1z"/>
<path d="M3116 3495 c-20 -31 -20 -35 3 -35 24 0 45 25 37 45 -8 22 -21 19
-40 -10z"/>
<path d="M2920 3451 c0 -6 5 -13 10 -16 22 -13 9 -65 -26 -112 -38 -50 -31
-72 10 -33 l24 21 6 -25 c5 -19 13 -26 31 -26 27 0 35 24 10 34 -24 9 -18 63
10 100 25 34 32 56 16 56 -5 0 -14 -7 -21 -15 -11 -14 -14 -13 -27 5 -14 20
-43 28 -43 11z"/>
<path d="M3393 3453 c-34 -4 -48 -33 -17 -33 14 0 15 -9 9 -60 -6 -49 -4 -60
8 -60 17 0 27 29 27 82 0 28 5 38 21 43 22 7 21 29 -2 31 -8 1 -29 -1 -46 -3z"/>
<path d="M3503 3450 c-29 -12 -43 -40 -43 -89 0 -45 25 -67 61 -56 47 15 71
115 33 142 -20 15 -21 15 -51 3z m37 -53 c0 -43 -21 -73 -45 -63 -14 5 -16 13
-11 38 12 63 56 82 56 25z"/>
<path d="M3624 3430 c-39 -16 -40 -61 -3 -81 23 -12 16 -29 -12 -29 -14 0 -19
-6 -17 -17 5 -24 19 -25 56 -3 39 24 39 30 7 69 l-26 30 23 3 c25 3 32 31 8
35 -8 1 -24 -2 -36 -7z"/>
<path d="M3292 3358 c3 -70 4 -73 27 -73 13 0 26 6 29 14 3 8 0 11 -7 7 -8 -5
-11 12 -11 58 0 60 -2 66 -20 66 -19 0 -21 -5 -18 -72z"/>
<path d="M3187 3403 c-16 -19 -42 -187 -31 -205 9 -15 22 1 28 37 6 28 11 35
30 35 30 0 46 19 52 62 9 65 -42 111 -79 71z m51 -60 c-3 -40 -6 -48 -23 -48
-16 0 -20 6 -19 33 3 45 11 62 29 62 13 0 15 -10 13 -47z"/>
<path d="M3053 3374 c-48 -46 -43 -124 6 -111 12 3 24 1 27 -4 9 -16 39 8 40
33 0 13 4 44 9 70 l7 48 -28 -2 c-17 -1 -43 -15 -61 -34z m53 -26 c-8 -41 -31
-67 -47 -51 -13 13 -4 46 17 68 25 25 37 18 30 -17z"/>
<path d="M4187 4443 c-15 -14 -6 -33 23 -48 35 -18 41 -5 14 33 -16 23 -26 27
-37 15z"/>
<path d="M3892 4343 c-29 -70 -37 -113 -20 -113 8 0 22 15 30 33 l17 32 12
-32 c8 -18 19 -33 26 -33 16 0 17 34 2 62 -10 18 -7 24 20 45 17 13 31 31 31
40 0 12 -6 11 -35 -6 -34 -20 -35 -20 -35 -1 0 36 -27 21 -48 -27z"/>
<path d="M4050 4343 c-32 -30 -47 -78 -31 -102 9 -14 63 -23 92 -15 10 3 16
15 15 32 0 15 3 46 8 70 l8 42 -31 0 c-19 0 -42 -10 -61 -27z m54 -30 c-8 -35
-22 -53 -40 -53 -19 0 -18 40 3 62 25 28 45 23 37 -9z"/>
<path d="M4180 4295 c-7 -36 -9 -72 -6 -81 8 -21 50 -14 54 10 3 13 0 16 -9
11 -12 -8 -10 25 7 98 5 22 3 27 -14 27 -16 0 -22 -11 -32 -65z"/>
<path d="M3945 3988 c9 -42 11 -44 30 -28 23 19 15 54 -13 58 -22 3 -23 1 -17
-30z"/>
<path d="M4051 3918 c2 -32 -6 -58 -31 -101 -18 -32 -30 -61 -27 -64 12 -11
35 6 48 36 16 35 29 31 29 -10 0 -19 5 -29 15 -29 14 0 15 13 9 93 -6 87 -15
117 -35 117 -5 0 -8 -19 -8 -42z"/>
<path d="M3899 3895 c-14 -8 -32 -28 -39 -46 -18 -43 2 -81 45 -85 51 -3 62 3
61 39 0 17 4 49 8 70 8 36 7 37 -20 37 -16 -1 -41 -7 -55 -15z m45 -42 c-8
-35 -22 -53 -40 -53 -19 0 -18 45 2 64 26 26 45 20 38 -11z"/>
<path d="M4162 3898 c-14 -18 -31 -128 -21 -134 16 -9 26 4 39 51 7 26 19 45
26 45 16 0 13 -23 -13 -107 -10 -29 -14 -55 -10 -59 20 -21 77 112 77 180 0
26 -3 28 -30 24 -17 -3 -33 -1 -36 4 -7 12 -20 10 -32 -4z"/>
<path d="M4282 3798 c7 -20 68 -23 68 -4 0 12 -10 16 -36 16 -24 0 -34 -4 -32
-12z"/>
<path d="M3909 3525 c-50 -27 -78 -173 -43 -223 17 -24 53 -29 86 -11 47 25
78 167 49 222 -16 31 -50 35 -92 12z m65 -31 c3 -8 3 -26 0 -40 -5 -19 -13
-24 -40 -24 -39 0 -39 -1 -20 45 16 37 49 48 60 19z m-14 -104 c0 -6 -7 -25
-16 -41 -21 -42 -48 -35 -52 14 -3 36 -3 37 32 37 20 0 36 -5 36 -10z"/>
<path d="M4177 3482 c-22 -24 -21 -32 2 -32 33 0 51 11 51 31 0 25 -31 25 -53
1z"/>
<path d="M4040 3398 c-27 -44 -26 -83 2 -102 28 -20 54 -20 61 -2 4 9 -3 16
-19 20 -29 8 -32 26 -5 26 28 0 37 20 12 27 -27 7 -22 26 9 33 39 9 36 30 -4
30 -30 0 -40 -6 -56 -32z"/>
<path d="M4398 3409 c-24 -14 -23 -48 3 -76 l22 -22 -27 -10 c-33 -13 -34 -31
0 -31 60 0 81 37 44 78 -11 12 -20 25 -20 31 0 5 9 7 20 4 15 -4 20 0 20 16 0
23 -31 28 -62 10z"/>
<path d="M4150 3350 c-14 -67 -9 -90 19 -90 25 0 38 19 21 30 -12 8 -11 26 6
94 5 21 3 26 -14 26 -16 0 -22 -11 -32 -60z"/>
<path d="M4290 3397 c-45 -15 -76 -71 -61 -110 9 -22 16 -26 48 -26 56 1 76 8
64 23 -6 7 -7 26 -1 51 19 79 15 84 -50 62z m10 -87 c-16 -31 -40 -25 -40 9 0
20 8 35 23 46 21 15 22 14 25 -9 2 -14 -2 -34 -8 -46z"/>
<path d="M3425 2893 c-16 -2 -63 -13 -104 -24 -120 -31 -279 -25 -488 17 -26
5 -33 3 -33 -9 0 -25 171 -51 335 -52 113 0 152 4 200 20 82 27 269 27 335 0
56 -22 83 -22 140 0 70 28 250 26 360 -4 76 -21 99 -23 225 -18 158 6 245 21
245 43 0 10 -7 13 -22 10 -177 -38 -332 -40 -458 -5 -115 31 -267 31 -357 0
l-63 -21 -58 19 c-58 20 -202 33 -257 24z"/>
<path d="M2800 2814 c-1 -11 -20 -40 -43 -66 -140 -155 -170 -191 -157 -183 8
5 78 55 156 112 l141 103 59 -10 c32 -6 63 -10 67 -10 5 0 -7 -28 -26 -62 -71
-129 -168 -318 -164 -318 3 0 70 80 151 179 80 98 152 184 160 190 8 7 36 11
64 9 l50 -3 -84 -265 c-46 -145 -82 -265 -80 -267 2 -2 176 319 276 509 31 60
38 68 64 68 27 0 28 -2 23 -37 -16 -104 -68 -576 -65 -594 2 -11 48 125 103
302 90 292 112 345 132 325 4 -4 18 -157 32 -342 13 -184 28 -331 32 -327 3 5
21 139 38 298 17 160 34 302 37 317 6 29 33 46 45 27 4 -7 35 -116 69 -243 70
-259 109 -398 114 -403 3 -3 3 -10 -28 389 -15 195 -19 289 -11 291 14 5 45
-4 45 -13 0 -5 65 -140 145 -302 80 -161 145 -288 145 -283 -1 6 -36 137 -79
293 -43 155 -75 282 -72 282 3 0 28 -6 55 -13 49 -13 52 -15 205 -219 86 -113
157 -205 159 -203 1 1 -41 91 -94 199 -53 108 -94 199 -92 202 3 2 41 7 84 11
l80 6 54 -49 c30 -27 80 -72 110 -99 30 -28 68 -61 84 -75 l29 -25 -23 40
c-14 22 -53 81 -87 132 -43 63 -61 97 -56 109 7 19 16 19 -147 -6 -115 -17
-226 -12 -340 16 -89 22 -121 25 -210 21 -65 -3 -122 -11 -150 -21 -55 -21
-50 -22 -135 3 -94 28 -213 28 -325 -1 -108 -27 -284 -29 -417 -5 -51 10 -100
20 -108 23 -10 4 -15 0 -15 -12z"/>
<path d="M5336 5415 c8 -43 -2 -56 -124 -163 -90 -79 -95 -82 -130 -76 -35 7
-36 6 -23 -12 26 -33 75 -84 82 -84 3 0 6 15 5 33 -1 28 9 41 82 106 46 40 85
71 88 68 3 -3 -4 -79 -15 -169 -23 -184 -25 -221 -11 -216 5 2 70 56 145 121
105 92 140 117 155 112 13 -4 20 -2 20 7 -1 16 -66 88 -80 88 -12 0 -12 -2 0
-36 10 -24 7 -30 -32 -66 -66 -61 -144 -128 -151 -128 -3 0 -4 15 -1 33 2 17
13 108 25 201 l20 169 -22 23 c-31 33 -41 30 -33 -11z"/>
<path d="M1777 5123 c-30 -48 -28 -65 3 -45 11 7 24 12 29 12 5 0 56 -31 113
-69 119 -78 139 -106 120 -169 -6 -21 -26 -52 -43 -70 -47 -48 -94 -45 -189
14 -130 80 -140 88 -140 112 0 35 -15 26 -50 -28 -33 -52 -33 -73 0 -53 15 10
33 2 120 -53 112 -72 150 -87 195 -78 71 15 145 109 145 184 0 66 -29 101
-145 176 -69 44 -105 73 -107 87 -5 35 -22 28 -51 -20z"/>
<path d="M5658 4994 c-35 -19 -36 -38 -2 -31 21 4 29 -2 50 -35 14 -22 27 -45
30 -53 3 -8 -43 -39 -135 -89 -121 -67 -143 -76 -161 -66 -35 19 -37 2 -5 -55
29 -52 52 -68 48 -33 -3 21 24 40 152 108 55 29 106 57 113 63 17 13 35 -4 57
-54 16 -34 17 -44 6 -61 -7 -11 -10 -22 -8 -25 9 -8 67 27 67 41 0 23 -157
301 -171 303 -8 1 -26 -4 -41 -13z"/>
<path d="M1550 4669 c0 -6 -11 -20 -24 -30 -13 -11 -36 -42 -50 -71 -52 -104
-25 -214 67 -275 155 -104 327 5 330 209 1 43 -3 54 -27 74 -15 13 -31 24 -37
24 -15 0 -11 -22 9 -43 27 -30 23 -133 -6 -175 -50 -69 -147 -87 -237 -42 -70
35 -98 79 -93 148 7 79 55 129 141 147 38 8 34 22 -10 34 -49 14 -63 14 -63 0z"/>
<path d="M1346 4073 c-9 -60 -16 -121 -16 -138 l1 -30 19 24 20 23 152 -22
c175 -25 175 -25 184 -52 11 -37 23 -3 40 116 l17 119 -31 29 c-47 41 -69 36
-37 -9 20 -28 28 -100 17 -138 -10 -32 -16 -33 -109 -20 -40 6 -43 8 -43 38 0
51 11 76 33 79 11 2 22 8 24 14 4 13 -41 24 -95 24 l-35 0 22 -24 c19 -21 22
-30 16 -71 l-7 -46 -57 7 c-86 10 -90 14 -79 76 10 53 24 82 37 74 4 -3 13 -1
21 4 11 7 8 11 -13 19 -60 23 -63 20 -81 -96z"/>
<path d="M6048 3998 c-9 -14 -69 -48 -154 -87 -174 -81 -217 -103 -221 -117
-2 -6 84 -43 192 -83 107 -41 198 -77 201 -82 14 -22 24 -5 24 41 0 38 -4 50
-15 50 -8 0 -15 -7 -15 -15 0 -8 -8 -15 -17 -15 -16 0 -272 86 -280 94 -5 4
259 129 271 129 6 0 19 -4 29 -8 15 -6 17 -1 17 41 0 64 -12 83 -32 52z"/>
<path d="M1697 3803 c-4 -3 -7 -14 -7 -23 0 -12 -56 -44 -192 -109 -109 -52
-187 -95 -182 -100 5 -5 92 -41 194 -81 102 -40 192 -81 202 -91 9 -10 19 -19
22 -19 3 0 6 27 6 60 0 44 -4 60 -14 60 -7 0 -16 -9 -19 -20 -6 -25 -23 -25
-81 0 -45 19 -46 21 -46 63 0 25 -3 58 -6 74 -5 28 -3 31 53 56 53 24 59 25
71 10 20 -27 28 -4 24 65 -4 58 -9 71 -25 55z m-157 -234 c0 -48 -1 -51 -23
-45 -41 10 -97 36 -97 45 0 9 85 49 108 50 8 1 12 -15 12 -50z"/>
<path d="M5676 3538 c-2 -7 -11 -62 -21 -121 -15 -99 -16 -110 -1 -132 17 -25
54 -50 63 -42 2 3 -3 19 -11 36 -16 31 -22 137 -8 157 5 9 25 9 77 0 69 -12
70 -12 67 -41 -5 -59 -12 -75 -37 -81 -14 -3 -25 -10 -25 -15 0 -5 2 -9 4 -9
2 0 27 -4 56 -10 62 -12 79 -5 51 21 -17 16 -20 27 -15 62 4 23 9 45 13 49 6
6 117 -8 133 -18 9 -6 1 -74 -13 -111 -6 -16 -17 -23 -34 -23 -34 0 -32 -18 3
-26 15 -3 32 -7 39 -9 19 -6 22 5 44 136 20 122 18 149 -5 116 -17 -22 -35
-21 -192 3 -71 11 -135 20 -142 20 -7 0 -17 11 -22 25 -10 27 -19 32 -24 13z"/>
<path d="M1635 3263 c-11 -3 -65 -18 -119 -35 -82 -25 -103 -28 -119 -19 -27
18 -31 8 -17 -48 13 -55 37 -69 42 -24 3 26 10 30 113 60 61 18 124 33 142 33
75 0 134 -109 98 -183 -19 -40 -59 -60 -199 -101 -81 -23 -89 -24 -104 -9 -23
23 -26 3 -7 -61 18 -60 31 -71 41 -32 4 19 18 27 62 41 200 59 232 78 252 148
10 38 9 54 -4 99 -30 105 -95 151 -181 131z"/>
<path d="M5598 3143 c-29 -77 -26 -94 8 -62 l24 22 55 -19 c78 -26 79 -27 68
-60 -8 -25 -17 -30 -92 -46 -103 -23 -135 -39 -151 -78 -17 -40 -8 -47 27 -21
15 11 55 26 88 34 124 30 113 31 129 -7 25 -59 107 -85 152 -48 26 20 43 53
74 144 25 72 22 92 -10 63 -19 -17 -24 -16 -167 36 -112 41 -150 59 -159 77
-18 37 -20 35 -46 -35z m269 -124 c32 -12 62 -25 66 -29 15 -13 -23 -77 -52
-90 -36 -15 -96 8 -106 41 -8 23 13 99 26 99 5 0 34 -10 66 -21z"/>
<path d="M1940 2926 c0 -7 7 -19 15 -26 11 -9 15 -32 15 -78 l0 -65 -22 21
c-79 74 -236 48 -304 -50 -96 -138 34 -350 198 -324 84 14 169 82 183 148 5
23 12 28 35 28 34 0 60 9 60 21 0 5 -12 9 -27 9 -53 0 -58 10 -63 137 -5 124
-13 150 -54 177 -31 20 -36 20 -36 2z m-18 -163 c37 -22 68 -80 68 -128 0
-105 -123 -210 -223 -191 -49 9 -83 39 -103 92 -15 39 -16 53 -6 91 7 25 24
60 38 78 51 67 161 95 226 58z"/>
<path d="M5456 2790 c-32 -49 -35 -76 -7 -60 11 5 24 10 29 10 13 0 62 -76 62
-95 0 -8 -17 -40 -37 -71 l-37 -56 -45 7 c-58 9 -82 21 -75 39 3 8 1 17 -5 20
-10 6 -81 -94 -81 -114 0 -15 11 -12 32 6 17 16 31 14 215 -20 217 -40 213
-39 213 -28 0 4 -49 86 -110 182 -60 96 -110 184 -110 197 0 34 -14 28 -44
-17z m153 -241 c17 -28 31 -53 31 -56 0 -6 -84 5 -111 15 -17 7 -17 10 7 50
14 23 29 42 33 42 4 0 22 -23 40 -51z"/>
<path d="M5032 1954 c-29 -14 -57 -35 -63 -45 -19 -37 -344 -186 -544 -251
-115 -37 -175 -52 -305 -77 -99 -20 -340 -45 -348 -36 -2 2 1 12 7 23 18 33
14 62 -9 62 -12 0 -26 -13 -39 -37 l-19 -37 -7 32 c-7 36 -13 38 -41 18 -16
-13 -17 -18 -6 -35 24 -41 26 -41 -173 -20 -130 13 -315 51 -435 87 -229 71
-502 195 -571 261 -40 38 -134 80 -147 66 -3 -3 0 -16 6 -30 12 -26 80 -64
114 -65 10 0 79 -31 155 -69 339 -169 632 -251 986 -277 53 -4 97 -9 97 -11 0
-3 -9 -16 -20 -31 -14 -17 -17 -29 -11 -35 11 -11 34 -2 74 25 15 11 20 10 31
-4 15 -20 36 -24 36 -6 0 6 -8 20 -17 30 -24 26 -4 38 64 38 250 1 674 122
998 285 71 36 135 65 142 65 34 0 110 43 127 70 17 30 17 30 -6 30 -13 0 -48
-12 -76 -26z"/>
<path d="M4821 1913 c-82 -79 -78 -125 6 -64 47 34 73 67 73 93 0 30 -26 20
-79 -29z"/>
<path d="M2560 1923 c0 -40 106 -131 128 -109 12 13 -29 77 -69 106 -51 37
-59 37 -59 3z"/>
<path d="M4624 1831 c-58 -42 -101 -101 -73 -101 44 0 139 74 139 109 0 29
-20 26 -66 -8z"/>
<path d="M2765 1823 c3 -16 18 -40 31 -54 27 -28 100 -66 110 -56 13 13 -30
69 -79 102 -62 42 -71 43 -62 8z"/>
<path d="M4875 1800 c-33 -7 -75 -31 -75 -42 0 -14 92 -20 130 -9 36 11 68 36
58 46 -9 9 -82 12 -113 5z"/>
<path d="M2467 1781 c-16 -6 -16 -9 8 -31 23 -21 36 -25 92 -25 40 0 68 4 70
11 9 26 -126 61 -170 45z"/>
<path d="M4435 1773 c-39 -20 -95 -73 -95 -90 0 -33 96 9 129 56 37 51 23 64
-34 34z"/>
<path d="M2960 1756 c0 -37 127 -132 148 -112 13 13 -24 61 -72 94 -52 35 -76
40 -76 18z"/>
<path d="M4243 1719 c-47 -23 -113 -91 -95 -97 18 -6 77 17 107 39 14 12 32
34 40 50 19 36 8 38 -52 8z"/>
<path d="M3150 1725 c0 -38 75 -106 134 -121 74 -18 -33 97 -111 121 -13 3
-23 4 -23 0z"/>
<path d="M4673 1700 c-34 -8 -63 -27 -63 -40 0 -13 73 -20 113 -11 47 11 84
41 65 53 -16 9 -71 9 -115 -2z"/>
<path d="M2735 1685 c-5 -2 -27 -6 -47 -10 -47 -7 -48 -18 -4 -39 27 -13 44
-14 86 -6 28 5 58 14 67 19 14 8 14 10 -3 19 -22 12 -84 23 -99 17z"/>
<path d="M3340 1671 c0 -33 101 -101 150 -101 46 0 3 49 -75 86 -53 25 -75 30
-75 15z"/>
<path d="M4017 1655 c-43 -21 -86 -59 -87 -77 0 -10 59 2 95 20 36 18 64 41
76 64 14 26 -24 23 -84 -7z"/>
<path d="M4396 1611 c-17 -27 154 -53 208 -32 16 6 14 10 -17 24 -38 18 -181
24 -191 8z"/>
<path d="M2895 1603 c-11 -3 -31 -10 -45 -15 -24 -10 -24 -11 -5 -18 48 -20
205 -5 205 20 0 17 -103 26 -155 13z"/>
<path d="M4191 1552 c-20 -6 -21 -9 -9 -19 36 -30 151 -37 198 -12 38 20 -133
48 -189 31z"/>
<path d="M3075 1536 c-39 -16 -21 -27 59 -33 69 -6 154 19 126 37 -22 14 -150
11 -185 -4z"/>
<path d="M3936 1512 c-17 -28 106 -57 179 -44 l40 8 -35 19 c-41 21 -174 34
-184 17z"/>
<path d="M3310 1493 c-35 -16 -35 -16 -10 -23 63 -20 200 2 200 31 0 16 -152
10 -190 -8z"/>
<path d="M5880 6303 c0 -4 5 -21 12 -39 18 -51 0 -78 -157 -234 l-144 -142
-45 6 c-26 4 -46 3 -46 -1 0 -5 29 -37 65 -73 53 -53 65 -61 71 -46 4 9 2 22
-5 29 -6 6 -11 18 -11 27 0 8 59 74 130 145 110 109 130 126 130 105 0 -14 -7
-115 -15 -225 -17 -231 -19 -335 -6 -335 5 0 93 82 196 183 134 129 194 181
209 180 52 -4 49 8 -14 72 -65 66 -95 74 -66 17 11 -22 13 -38 7 -54 -5 -13
-66 -79 -135 -148 -108 -106 -126 -121 -126 -100 0 14 7 150 16 302 l17 276
-31 31 c-28 29 -52 40 -52 24z"/>
<path d="M1310 6075 c-74 -74 -131 -138 -127 -142 4 -4 21 -2 37 4 23 9 33 8
52 -5 31 -20 307 -293 319 -314 5 -10 5 -26 -1 -42 -5 -14 -5 -28 -1 -31 13
-7 251 235 257 262 7 27 -16 105 -32 110 -7 2 -14 -15 -19 -44 -4 -26 -13 -59
-20 -73 -15 -30 -103 -130 -114 -130 -4 0 -42 34 -86 76 l-79 75 56 56 c55 55
57 56 87 44 57 -24 55 -1 -5 60 -32 33 -64 59 -70 59 -8 0 -10 -14 -7 -42 4
-41 2 -46 -46 -93 l-51 -49 -70 69 c-39 38 -70 77 -70 86 0 20 98 114 129 124
15 4 28 1 41 -10 23 -21 44 -11 31 13 -13 23 -60 72 -69 72 -4 0 -68 -61 -142
-135z"/>
<path d="M999 5733 c-19 -32 -35 -61 -37 -65 -6 -12 33 -9 45 3 7 7 18 9 26 6
15 -6 254 -318 264 -345 4 -9 -1 -12 -18 -8 -13 3 -55 10 -94 16 -124 19 -120
17 -174 90 -57 78 -81 122 -81 145 0 28 -18 13 -54 -45 -36 -57 -35 -82 3 -58
15 9 26 10 37 3 22 -14 79 -93 72 -100 -3 -3 -35 -1 -71 5 -55 10 -66 15 -69
33 -6 37 -26 29 -57 -25 -17 -29 -39 -63 -47 -75 -15 -20 -15 -23 -1 -29 9 -3
25 4 36 15 12 12 28 21 36 21 16 0 196 -27 230 -35 20 -4 129 -140 123 -154
-2 -4 -82 5 -178 20 -260 42 -253 40 -260 68 -3 14 -10 26 -15 27 -16 5 -88
-127 -76 -139 7 -7 15 -6 26 3 20 16 67 11 344 -35 239 -39 271 -42 271 -20 0
8 -33 58 -74 112 -40 54 -69 99 -65 101 5 2 53 -4 107 -12 127 -20 152 -20
152 0 0 9 -75 119 -166 245 -91 127 -169 242 -173 256 -12 43 -27 37 -62 -24z"/>
<path d="M6433 5664 c2 -34 -2 -40 -58 -80 -150 -107 -314 -214 -330 -214 -9
0 -26 5 -37 11 -12 7 -24 7 -30 1 -10 -10 96 -172 113 -172 6 0 8 17 4 43 l-7
43 54 36 c29 20 116 79 192 132 134 92 167 108 181 86 9 -14 37 -12 33 3 -6
25 -93 147 -105 147 -8 0 -12 -13 -10 -36z"/>
<path d="M6650 5342 c0 -22 -40 -71 -201 -246 -110 -120 -198 -223 -196 -229
3 -9 63 -11 233 -7 312 7 376 6 397 -4 24 -12 22 10 -8 78 -28 63 -42 71 -47
24 -4 -42 -13 -44 -259 -53 l-204 -7 36 39 c291 314 271 295 307 288 19 -3 33
-2 31 2 -38 92 -65 143 -76 143 -8 0 -13 -11 -13 -28z"/>
<path d="M531 4838 c-5 -24 -15 -62 -22 -86 -14 -51 -5 -66 21 -34 10 12 28
22 41 22 26 0 171 -39 181 -48 3 -4 -7 -52 -22 -107 -16 -55 -33 -119 -39
-141 l-11 -42 -91 24 c-100 26 -116 35 -121 66 -7 47 -25 24 -49 -62 -27 -97
-22 -122 15 -75 l22 28 207 -57 c263 -72 256 -69 263 -106 11 -52 30 -33 54
53 12 45 25 90 27 100 8 26 -22 21 -37 -7 -7 -14 -19 -27 -26 -30 -13 -5 -203
42 -216 53 -7 6 63 275 74 287 7 6 199 -46 216 -59 6 -5 12 -18 12 -28 0 -17
17 -35 25 -27 4 4 55 174 55 183 0 15 -30 1 -44 -20 -9 -14 -23 -25 -30 -25
-33 0 -450 121 -458 132 -4 7 -8 21 -8 31 0 35 -28 17 -39 -25z"/>
<path d="M6936 4645 c-9 -45 -3 -43 -267 -102 l-212 -47 -17 22 c-17 21 -40
30 -40 15 0 -25 74 -331 83 -341 18 -22 64 -42 97 -42 16 0 30 2 30 5 0 2 -22
26 -49 53 -52 52 -85 127 -79 183 3 32 3 33 102 55 55 13 103 21 106 19 4 -2
13 -36 20 -76 l14 -72 -28 -22 c-42 -33 -26 -46 37 -30 28 7 64 16 80 19 34 8
37 36 3 36 -13 0 -28 6 -34 13 -13 15 -45 137 -38 144 8 8 157 43 183 43 26 0
41 -39 50 -127 6 -61 6 -61 -26 -77 -45 -24 -29 -40 32 -32 28 3 54 9 59 14 4
4 3 25 -4 47 -6 22 -25 105 -42 184 -17 80 -36 146 -42 148 -7 2 -15 -12 -18
-32z"/>
<path d="M365 4108 c-3 -11 -17 -326 -19 -448 l-1 -45 50 -11 c79 -17 105 3
39 31 l-36 15 3 79 c2 44 7 82 11 86 4 4 107 4 229 0 236 -8 234 -8 265 -61 7
-10 14 -17 16 -14 3 3 8 49 11 103 7 106 -3 124 -36 66 l-17 -31 -98 6 c-53 3
-159 8 -234 12 l-138 6 1 52 c1 92 11 129 38 136 14 3 26 11 29 18 2 8 -13 12
-52 12 -37 0 -58 -4 -61 -12z"/>
<path d="M7057 4074 c-4 -4 -7 -15 -7 -25 0 -10 -8 -22 -17 -28 -10 -5 -120
-12 -244 -16 l-227 -7 -17 26 c-10 14 -24 26 -33 26 -12 0 -14 -10 -8 -61 3
-34 6 -82 6 -106 0 -53 17 -54 34 -3 l11 35 97 9 c123 11 130 8 126 -46 -3
-42 -5 -44 -108 -115 -139 -95 -154 -115 -151 -200 1 -42 13 -42 34 1 15 33
48 61 185 156 l63 44 33 -36 c64 -70 165 -73 220 -8 33 40 38 70 34 224 -3
120 -10 151 -31 130z m-12 -201 c0 -51 -4 -66 -24 -87 -52 -56 -156 -53 -186
4 -8 16 -15 54 -15 84 l0 55 83 4 c45 2 96 3 112 3 l30 -1 0 -62z"/>
<path d="M896 3518 c-6 -32 -101 -132 -193 -204 l-32 -26 -39 32 c-68 54 -155
50 -206 -11 -34 -40 -42 -90 -27 -174 6 -38 16 -98 22 -132 7 -42 16 -63 25
-63 8 0 14 10 14 24 0 13 7 29 15 36 8 6 116 28 241 47 l227 36 23 -28 c13
-16 26 -26 30 -22 4 3 1 52 -7 108 -15 111 -34 140 -45 69 -5 -30 -13 -44 -28
-49 -36 -14 -184 -34 -195 -27 -6 4 -11 26 -11 50 0 38 5 46 41 76 95 76 169
153 178 185 10 37 1 97 -15 102 -6 2 -14 -11 -18 -29z m-282 -239 c34 -16 58
-70 54 -121 l-3 -42 -107 -16 c-122 -19 -118 -20 -118 58 0 61 17 93 60 114
40 21 79 23 114 7z"/>
<path d="M6504 3384 c-22 -37 -28 -63 -32 -124 -2 -44 0 -92 7 -112 25 -75
112 -128 188 -113 49 9 95 55 138 137 61 117 79 138 124 138 57 0 83 -25 88
-87 9 -94 -35 -164 -112 -179 -19 -3 -35 -12 -35 -19 0 -16 32 -25 93 -25 39
0 47 3 47 18 0 10 10 38 21 62 12 25 24 72 26 105 8 113 -54 185 -159 185 -65
0 -109 -41 -166 -154 -52 -102 -82 -130 -131 -122 -66 10 -107 72 -98 148 10
84 62 141 141 157 16 4 31 12 34 19 3 9 -17 12 -72 12 l-75 0 -27 -46z"/>
<path d="M6406 2941 c-3 -5 -19 -47 -35 -95 -32 -93 -26 -122 15 -71 l23 29
153 -48 c286 -90 302 -97 313 -134 5 -18 13 -31 18 -29 12 4 67 169 60 180 -3
5 -18 -3 -33 -18 l-28 -27 -221 71 c-226 73 -241 82 -241 130 0 21 -14 28 -24
12z"/>
<path d="M814 2869 c-97 -18 -183 -80 -227 -164 -33 -61 -31 -181 4 -255 30
-65 86 -122 149 -153 67 -33 176 -31 251 4 63 30 121 85 152 144 33 64 29 163
-9 245 -64 136 -187 205 -320 179z m205 -87 c60 -37 91 -96 91 -174 0 -104
-51 -184 -151 -238 -121 -64 -243 -49 -303 39 -48 69 -58 140 -29 213 23 61
68 114 121 145 100 59 193 64 271 15z"/>
<path d="M6196 2434 c-47 -92 -49 -129 -3 -86 16 16 30 20 43 15 21 -7 396
-203 404 -210 2 -2 -13 -38 -35 -79 -36 -69 -42 -74 -72 -74 -17 0 -34 -4 -38
-10 -6 -10 64 -50 89 -50 8 0 45 61 89 148 41 81 92 176 112 211 19 35 35 71
33 79 -2 8 -22 28 -45 44 -48 35 -74 30 -43 -9 11 -14 20 -34 20 -44 0 -31
-62 -139 -79 -139 -9 1 -104 47 -211 104 -190 101 -195 105 -198 137 -2 19 -7
38 -12 42 -4 5 -29 -31 -54 -79z"/>
<path d="M1174 2174 c-240 -174 -288 -205 -301 -199 -7 3 -20 8 -28 11 -8 3
-15 1 -15 -6 0 -16 90 -140 101 -140 6 0 8 18 4 45 -7 40 -4 47 21 71 34 32
276 205 281 201 3 -4 -108 -523 -123 -568 -2 -9 2 -23 9 -31 8 -7 19 -23 26
-36 6 -12 18 -22 26 -22 11 0 13 9 9 44 -4 24 -2 52 5 64 12 22 274 218 329
246 29 15 35 15 62 1 52 -27 52 -7 -1 68 -50 71 -77 91 -71 52 9 -58 9 -57
-136 -163 -79 -57 -146 -101 -149 -99 -2 3 23 128 57 277 39 172 58 276 52
282 -6 6 -64 -30 -158 -98z"/>
<path d="M5882 1956 c-63 -75 -77 -105 -44 -91 54 24 69 19 155 -51 l84 -69
46 -140 c26 -78 47 -153 47 -168 0 -15 3 -27 8 -27 4 0 29 25 55 55 32 36 47
61 43 71 -6 15 -9 14 -32 -1 -14 -9 -32 -14 -39 -11 -14 5 -81 194 -72 202 3
3 41 1 84 -5 152 -22 143 -19 143 -51 0 -17 4 -30 8 -30 12 0 112 125 112 139
0 14 -23 14 -37 0 -8 -8 -52 -6 -165 7 l-153 18 -80 64 c-102 82 -107 88 -93
118 8 17 8 28 1 35 -6 6 -30 -15 -71 -65z"/>
<path d="M5380 1161 l19 -50 -36 -34 -36 -34 49 4 49 5 19 -44 19 -43 13 46
c14 45 15 46 67 55 l52 9 -42 24 c-46 27 -48 30 -34 79 10 34 2 42 -19 16 -29
-34 -49 -36 -96 -9 l-44 26 20 -50z"/>
<path d="M1965 1146 c7 -45 7 -46 -31 -68 -37 -22 -38 -22 -13 -29 13 -4 36
-7 50 -8 21 -1 28 -9 41 -48 l16 -48 17 43 c17 41 19 42 64 42 l46 1 -34 31
-34 31 16 45 c10 25 15 47 13 49 -2 3 -23 -8 -45 -23 l-41 -27 -36 28 -36 27
7 -46z"/>
<path d="M4362 952 c-54 -58 -58 -90 -7 -56 25 17 28 17 39 1 7 -9 41 -102 77
-207 l64 -191 -33 -27 c-18 -15 -30 -30 -27 -34 11 -11 210 60 213 76 3 14 -3
15 -36 10 -37 -6 -41 -4 -55 22 -11 23 -135 389 -153 452 -6 22 -28 10 -82
-46z"/>
<path d="M3045 964 c-27 -7 -62 -14 -77 -14 -18 0 -28 -5 -28 -15 0 -10 10
-15 30 -15 17 0 33 -6 36 -14 3 -7 -21 -105 -53 -217 l-58 -204 -42 -3 c-41
-3 -54 -14 -34 -26 17 -11 181 -56 201 -56 30 0 24 20 -10 32 -17 6 -32 19
-35 31 -3 12 24 123 60 247 80 270 80 270 69 269 -5 0 -31 -7 -59 -15z"/>
<path d="M4080 945 c-8 -8 -49 -19 -90 -25 -96 -13 -108 -17 -114 -38 -2 -9
-6 -66 -8 -127 -3 -105 -2 -110 17 -107 11 2 46 4 77 5 50 2 61 -1 85 -25 22
-23 28 -38 31 -91 7 -113 -45 -171 -156 -174 -35 -1 -67 -4 -70 -8 -13 -13 25
-25 80 -25 133 0 218 84 218 217 0 70 -19 114 -66 149 -34 26 -45 29 -110 28
l-73 -1 5 46 c8 67 9 68 53 75 23 3 59 9 82 12 41 6 48 14 63 77 7 30 -2 35
-24 12z"/>
<path d="M3443 893 c-86 -49 -109 -149 -49 -220 l25 -29 -29 -17 c-74 -44 -97
-160 -47 -235 79 -121 270 -84 308 60 16 60 1 116 -46 162 l-34 34 25 17 c79
52 84 169 9 215 -48 30 -122 36 -162 13z m127 -38 c23 -14 42 -68 35 -102 -14
-77 -86 -98 -150 -42 -30 26 -35 37 -35 73 0 45 26 80 65 88 20 4 65 -5 85
-17z m-59 -264 c60 -37 93 -91 86 -136 -12 -75 -70 -114 -142 -94 -91 25 -115
178 -37 239 32 26 40 25 93 -9z"/>
</g>
</svg>
