<?xml version="1.0" standalone="no"?>
<!DOCTYPE svg PUBLIC "-//W3C//DTD SVG 20010904//EN"
 "http://www.w3.org/TR/2001/REC-SVG-20010904/DTD/svg10.dtd">
<svg version="1.0" xmlns="http://www.w3.org/2000/svg"
 width="248.000000pt" height="248.000000pt" viewBox="0 0 248.000000 248.000000"
 preserveAspectRatio="xMidYMid meet">

<g transform="translate(0.000000,248.000000) scale(0.100000,-0.100000)"
fill="#000000" stroke="none">
<path d="M1117 2464 c-14 -14 -7 -35 11 -32 9 2 17 10 17 17 0 16 -18 25 -28
15z"/>
<path d="M1177 2464 c-9 -10 4 -34 19 -34 8 0 14 9 14 20 0 19 -19 27 -33 14z"/>
<path d="M1240 2456 c0 -8 4 -17 9 -20 11 -7 33 18 24 27 -12 12 -33 7 -33 -7z"/>
<path d="M1304 2459 c-3 -6 -2 -15 4 -21 13 -13 32 -2 32 18 0 16 -26 19 -36
3z"/>
<path d="M1365 2460 c-8 -14 3 -30 21 -30 8 0 14 9 14 20 0 21 -24 28 -35 10z"/>
<path d="M1050 2440 c0 -23 25 -27 33 -6 7 16 -1 26 -20 26 -7 0 -13 -9 -13
-20z"/>
<path d="M1430 2440 c0 -23 25 -27 33 -6 7 16 -1 26 -20 26 -7 0 -13 -9 -13
-20z"/>
<path d="M997 2443 c-4 -3 -7 -12 -7 -20 0 -15 26 -18 34 -4 7 11 -18 33 -27
24z"/>
<path d="M1495 2441 c-8 -15 3 -31 21 -31 9 0 14 7 12 17 -4 20 -24 28 -33 14z"/>
<path d="M924 2419 c-3 -6 -2 -15 4 -21 13 -13 32 -2 32 18 0 16 -26 19 -36 3z"/>
<path d="M1550 2417 c0 -19 10 -27 26 -20 21 8 17 33 -6 33 -11 0 -20 -6 -20
-13z"/>
<path d="M1617 2414 c-14 -15 -6 -34 14 -34 14 0 19 5 17 17 -3 18 -20 27 -31
17z"/>
<path d="M864 2399 c-3 -6 -2 -15 4 -21 13 -13 32 -2 32 18 0 16 -26 19 -36 3z"/>
<path d="M1681 2391 c-15 -10 -8 -41 9 -41 15 0 25 29 14 40 -5 5 -15 5 -23 1z"/>
<path d="M804 2379 c-3 -6 -2 -15 4 -21 13 -13 32 -2 32 18 0 16 -26 19 -36 3z"/>
<path d="M1098 2369 c-66 -9 -258 -68 -309 -94 -64 -33 -311 -209 -353 -252
-86 -87 -154 -196 -216 -344 -50 -120 -60 -154 -60 -202 0 -32 -5 -91 -11
-130 -20 -127 21 -425 75 -542 13 -27 47 -87 77 -132 30 -45 70 -108 91 -141
28 -46 54 -72 110 -110 40 -27 84 -62 98 -77 55 -61 121 -105 156 -105 31 0
37 5 50 35 8 19 18 35 24 35 14 0 25 -23 22 -47 -5 -33 14 -61 56 -82 75 -37
140 -46 342 -46 208 0 275 11 369 58 55 27 71 49 53 77 -10 17 -10 20 6 20 10
0 24 -11 30 -25 6 -14 20 -25 30 -25 24 0 101 49 187 119 39 32 90 72 115 89
47 33 71 64 170 219 90 140 100 165 132 322 32 161 36 237 24 416 -8 110 -13
130 -58 244 -66 168 -76 185 -167 299 -84 106 -115 133 -261 234 -120 82 -139
92 -274 139 -160 55 -344 72 -508 48z m442 -43 c127 -35 191 -67 340 -166 163
-108 170 -114 228 -190 97 -129 130 -187 177 -305 49 -124 52 -137 71 -385 6
-84 1 -122 -57 -406 -6 -34 -27 -76 -58 -121 -26 -39 -71 -108 -99 -154 -55
-92 -86 -125 -177 -188 -33 -23 -93 -66 -134 -96 -40 -30 -79 -55 -86 -55 -15
0 -115 169 -109 184 3 6 26 27 52 46 102 76 195 176 267 285 81 123 119 209
135 303 5 34 15 89 20 122 8 47 7 75 -5 132 -9 40 -23 109 -31 153 -21 111
-41 160 -89 216 -23 27 -48 61 -55 76 -81 162 -351 327 -573 350 -52 5 -60 9
-74 37 l-16 31 -15 -33 c-13 -26 -22 -32 -46 -32 -141 -1 -418 -119 -538 -230
-95 -87 -195 -260 -238 -410 -26 -94 -39 -346 -21 -429 43 -200 181 -400 365
-528 45 -31 83 -58 85 -60 8 -6 -71 -198 -86 -209 -23 -19 -52 -4 -132 70 -43
39 -107 92 -143 117 -56 40 -74 61 -123 145 -32 55 -75 122 -96 149 -46 61
-54 81 -78 198 -38 186 -44 262 -33 427 10 149 12 160 58 280 95 250 175 350
401 502 132 89 176 113 263 143 171 59 206 65 390 61 140 -4 179 -8 260 -30z
m-277 -294 c-8 -22 -9 -22 -25 5 -14 26 -14 31 6 73 l21 45 3 -50 c1 -28 -1
-61 -5 -73z m-39 66 c-9 -32 -8 -31 -69 -36 -30 -2 -55 -8 -55 -12 0 -4 16
-27 35 -51 34 -41 35 -47 30 -96 -4 -29 -4 -53 0 -53 3 0 24 9 47 21 26 14 51
19 69 15 28 -5 28 -5 9 14 -11 11 -20 33 -20 51 0 29 25 95 39 103 3 2 29 0
56 -3 l50 -7 -45 -16 c-38 -14 -41 -17 -18 -17 21 -1 26 -5 21 -17 -5 -13 -15
-15 -50 -10 -23 3 -43 3 -43 0 0 -3 14 -26 31 -50 17 -25 32 -52 33 -61 1 -8
10 -19 19 -25 20 -11 20 -12 6 52 l-11 51 43 46 c39 42 41 47 23 54 -10 4 -33
8 -51 8 -34 1 -63 23 -63 47 0 18 39 13 145 -18 113 -32 200 -73 296 -139 90
-62 120 -94 150 -159 9 -19 33 -55 53 -79 60 -72 86 -124 101 -207 8 -44 21
-110 29 -149 9 -38 16 -87 16 -108 0 -52 -36 -209 -67 -292 -41 -108 -159
-281 -247 -360 -106 -96 -116 -102 -128 -81 -10 18 -36 21 -58 5 -12 -8 -10
-9 7 -4 31 8 38 -12 17 -50 l-17 -33 36 -61 c20 -33 32 -63 26 -66 -16 -11
-28 5 -44 57 -17 58 -31 78 -54 78 -9 0 -23 4 -31 10 -12 7 -11 12 5 32 l20
23 -23 -20 c-16 -13 -21 -26 -18 -41 5 -19 -2 -23 -72 -42 -185 -50 -235 -49
-405 10 -75 26 -85 32 -71 43 10 7 15 19 11 28 -3 8 -1 32 4 52 l11 37 26 -25
c36 -34 150 -87 187 -87 17 0 36 -5 43 -12 8 -8 12 -8 12 -1 0 13 -23 23 -55
23 -12 0 -59 18 -104 41 l-82 41 -57 101 c-31 56 -73 118 -92 138 -42 44 -132
79 -200 79 -48 0 -50 1 -51 28 -1 21 -2 22 -6 7 -3 -11 -16 -33 -29 -48 -30
-36 -31 -85 -3 -121 26 -33 71 -35 93 -4 l16 22 0 -27 c0 -24 3 -27 36 -27 25
0 35 -4 31 -12 -13 -37 -14 -58 -1 -26 15 34 20 37 69 43 76 10 87 5 123 -55
28 -46 32 -61 27 -95 -7 -47 -11 -53 -27 -37 -7 7 -17 12 -22 12 -6 0 0 -7 12
-16 31 -21 28 -39 -12 -62 -27 -16 -38 -32 -52 -76 -16 -50 -35 -69 -47 -48
-3 4 6 34 20 66 23 56 24 70 8 123 -5 16 -2 22 12 26 14 4 14 5 -5 6 -14 1
-25 -6 -30 -20 -7 -19 -12 -17 -76 31 -145 106 -237 224 -299 380 -39 100 -47
149 -48 298 0 115 4 153 25 235 30 116 113 282 183 364 48 57 165 139 271 192
71 36 242 84 315 90 15 1 17 -4 11 -21z m-14 -89 c19 -6 37 -13 39 -15 1 -1
-14 -30 -34 -63 -21 -34 -40 -60 -41 -58 -2 2 0 23 5 48 7 42 6 46 -27 81
l-36 38 30 -9 c16 -5 45 -15 64 -22z m-510 -1184 c0 -21 -5 -25 -27 -25 l-28
-1 23 -12 23 -13 -21 -27 c-26 -33 -54 -35 -74 -5 -16 22 -21 69 -10 81 4 3
18 -2 33 -11 26 -16 26 -16 9 4 -26 30 -23 34 27 34 41 0 45 -2 45 -25z m40
-30 l0 -55 80 0 c47 0 80 -4 80 -10 0 -11 -120 -14 -157 -4 -21 6 -23 13 -23
65 0 33 4 59 10 59 6 0 10 -25 10 -55z m40 14 c0 -28 1 -29 50 -29 28 0 50 -4
50 -10 0 -12 -11 -12 -74 -4 -46 7 -46 7 -46 46 0 24 4 37 10 33 6 -3 10 -19
10 -36z m56 6 c18 -14 18 -14 -8 -15 -18 0 -28 5 -28 15 0 19 11 19 36 0z
m222 -422 c98 -34 116 -37 207 -36 78 0 123 7 208 31 59 16 110 26 113 21 3
-5 14 -34 25 -66 10 -31 27 -65 37 -76 16 -18 16 -20 -12 -42 -71 -57 -256
-91 -440 -82 -207 11 -317 43 -324 95 -3 21 29 135 50 175 12 23 13 23 136
-20z"/>
<path d="M1217 2270 l-18 -30 -23 26 c-12 15 -28 25 -35 23 -9 -3 -6 -14 13
-36 14 -17 29 -45 32 -62 4 -17 13 -31 20 -31 10 0 13 7 8 25 -4 17 2 39 20
70 18 31 23 45 14 45 -8 0 -22 -13 -31 -30z"/>
<path d="M998 2263 c-58 -15 -84 -40 -29 -28 29 6 30 5 42 -49 9 -40 16 -53
26 -49 8 3 12 12 9 20 -4 8 -9 32 -12 53 -5 33 -3 39 15 45 11 3 21 11 21 16
0 11 0 11 -72 -8z"/>
<path d="M1527 2230 c-36 -29 -36 -71 -1 -99 48 -38 101 -22 118 36 5 14 0 29
-16 47 -33 36 -68 42 -101 16z m71 -16 c26 -18 28 -41 5 -66 -30 -33 -73 -16
-73 28 0 21 23 54 38 54 4 0 18 -7 30 -16z"/>
<path d="M1370 2225 c0 -9 5 -15 11 -13 6 2 11 8 11 13 0 5 -5 11 -11 13 -6 2
-11 -4 -11 -13z"/>
<path d="M857 2214 c-4 -4 27 -104 38 -122 1 -1 10 0 19 4 10 4 13 10 8 18 -5
6 -17 32 -27 59 -17 45 -25 54 -38 41z"/>
<path d="M1692 2128 c-19 -34 -27 -57 -20 -63 6 -7 16 -1 28 15 17 22 21 24
41 12 31 -19 38 -4 9 18 -19 14 -22 22 -14 30 9 9 19 8 42 -4 35 -18 42 -19
42 -8 0 7 -82 52 -94 52 -2 0 -18 -24 -34 -52z"/>
<path d="M730 2151 c-36 -19 -52 -57 -30 -71 6 -4 31 -2 56 3 24 6 47 7 51 3
11 -10 -35 -46 -58 -46 -10 0 -19 -7 -19 -15 0 -14 4 -14 37 0 50 21 63 34 63
61 0 32 -15 38 -66 24 -25 -7 -47 -10 -51 -7 -11 12 19 37 43 37 15 0 24 6 24
15 0 19 -8 19 -50 -4z"/>
<path d="M564 2029 c-22 -17 -41 -33 -43 -35 -2 -2 17 -26 42 -53 32 -34 49
-45 56 -38 8 8 5 17 -11 34 -19 20 -19 23 -5 29 9 3 30 1 46 -4 23 -8 32 -7
41 3 9 10 4 15 -20 20 -22 5 -30 12 -30 29 0 21 -17 46 -31 46 -3 0 -24 -14
-45 -31z m51 -10 c7 -11 -22 -49 -37 -49 -19 0 -21 33 -3 46 23 17 32 17 40 3z"/>
<path d="M1877 2013 c-12 -11 -8 -23 8 -23 8 0 15 7 15 15 0 16 -12 20 -23 8z"/>
<path d="M1961 1914 c-25 -32 -25 -37 -7 -73 16 -30 66 -60 66 -38 0 7 -10 17
-22 22 -31 13 -35 56 -8 80 17 15 24 16 45 7 15 -7 25 -20 25 -32 0 -11 7 -20
15 -20 22 0 19 14 -11 49 -33 40 -74 42 -103 5z"/>
<path d="M431 1888 c-17 -23 -31 -44 -30 -47 0 -4 22 -23 49 -43 l49 -38 36
47 c41 54 37 74 -6 23 -23 -27 -31 -32 -41 -22 -10 10 -10 17 0 33 19 30 4 38
-17 11 -15 -20 -19 -22 -29 -9 -10 12 -8 21 13 45 14 17 21 33 16 36 -5 3 -23
-13 -40 -36z"/>
<path d="M348 1769 c-3 -8 10 -31 31 -52 l36 -38 -54 2 c-63 3 -81 -15 -24
-25 60 -9 100 -7 106 7 2 7 -17 37 -43 67 -33 37 -49 49 -52 39z"/>
<path d="M2125 1769 c-16 -4 -47 -7 -67 -8 -27 -1 -36 -5 -32 -14 3 -8 15 -13
26 -13 26 1 51 -50 31 -62 -8 -5 -9 -13 -3 -22 5 -8 10 -12 12 -10 2 3 22 28
45 55 32 41 38 54 29 66 -8 10 -20 13 -41 8z m5 -39 c-12 -22 -25 -26 -36 -9
-7 12 12 29 34 29 10 0 10 -5 2 -20z"/>
<path d="M2164 1616 l-61 -21 17 -49 c9 -28 22 -52 28 -54 8 -2 7 9 -3 38 -8
24 -15 44 -15 45 0 1 21 8 46 15 39 11 66 33 53 44 -2 2 -31 -6 -65 -18z"/>
<path d="M268 1581 c-4 -22 113 -62 125 -43 5 8 7 14 5 15 -1 1 -31 11 -65 23
-55 18 -63 19 -65 5z"/>
<path d="M240 1473 c0 -12 12 -16 65 -26 14 -2 5 -10 -32 -26 -70 -31 -72 -56
-5 -65 26 -4 55 -9 65 -12 10 -3 17 0 17 9 0 9 -17 18 -42 24 l-43 9 52 27
c29 15 53 33 53 40 0 8 -24 17 -65 23 -51 7 -65 7 -65 -3z"/>
<path d="M2198 1458 c-30 -6 -48 -16 -48 -24 0 -17 2 -17 73 -3 36 8 57 17 57
25 0 16 -14 16 -82 2z"/>
<path d="M2218 1363 c-42 -3 -58 -8 -58 -18 0 -10 10 -15 30 -15 23 0 31 -5
36 -25 8 -33 20 -32 19 3 0 44 29 35 33 -10 5 -59 23 -45 20 14 -3 57 -1 55
-80 51z"/>
<path d="M220 1264 c0 -12 9 -15 46 -12 36 2 49 -1 58 -14 19 -30 -4 -53 -58
-56 -32 -2 -46 -7 -46 -18 0 -20 79 -19 108 2 24 17 30 61 12 95 -14 26 -120
29 -120 3z"/>
<path d="M2181 1184 c-27 -34 -27 -78 -1 -104 45 -45 110 -10 110 59 0 68 -69
96 -109 45z m82 -25 c20 -28 10 -58 -21 -66 -31 -7 -56 7 -60 36 -7 48 53 70
81 30z"/>
<path d="M297 1054 c-8 -8 1 -24 14 -24 5 0 9 7 9 15 0 15 -12 20 -23 9z"/>
<path d="M2136 1004 c-3 -9 4 -16 19 -20 44 -11 31 -38 -20 -46 -19 -3 -35
-16 -35 -30 0 -4 14 -3 30 2 27 8 32 6 40 -16 15 -39 48 -31 70 19 11 23 20
47 20 54 0 6 -27 20 -59 31 -50 17 -60 18 -65 6z m94 -59 c0 -24 -12 -45 -26
-45 -14 0 -18 27 -8 54 7 17 34 10 34 -9z"/>
<path d="M390 926 c0 -2 7 -20 15 -40 14 -33 14 -37 -1 -43 -15 -5 -27 5 -37
32 -3 6 -7 7 -11 4 -4 -3 -2 -18 3 -32 8 -20 7 -27 -5 -31 -22 -9 -21 -9 -34
29 -6 19 -17 35 -25 35 -9 0 -6 -15 12 -53 l25 -53 58 28 59 28 -21 50 c-11
27 -25 50 -29 50 -5 0 -9 -2 -9 -4z"/>
<path d="M2067 836 c-4 -9 8 -20 34 -31 22 -10 37 -21 33 -24 -3 -3 -29 -8
-57 -11 -67 -6 -68 -24 -3 -62 60 -35 87 -23 29 13 l-38 24 50 3 c46 3 75 15
75 31 0 3 -27 21 -59 39 -46 25 -60 29 -64 18z"/>
<path d="M431 744 c-24 -19 -48 -34 -54 -34 -5 0 -4 -7 3 -15 10 -12 15 -12
34 0 20 14 23 13 39 -15 17 -28 17 -29 -5 -44 -16 -11 -19 -19 -11 -27 8 -8
25 0 62 26 28 20 51 41 51 45 0 17 -18 20 -30 5 -18 -21 -36 -19 -55 8 -15 21
-14 23 9 44 19 16 22 24 13 31 -8 7 -25 -1 -56 -24z"/>
<path d="M1966 683 c-3 -3 -6 -9 -6 -13 0 -9 90 -80 102 -80 19 0 6 28 -24 51
-61 46 -65 48 -72 42z"/>
<path d="M1913 615 c-3 -9 -3 -19 1 -22 3 -4 -3 -17 -15 -29 -16 -17 -26 -21
-39 -14 -17 9 -30 4 -30 -10 0 -4 28 -19 61 -34 48 -21 65 -24 75 -15 9 7 11
16 5 23 -4 6 -16 35 -25 64 -19 56 -23 61 -33 37z m25 -96 c-2 -5 -12 -3 -23
5 -17 13 -18 17 -5 25 16 11 35 -10 28 -30z"/>
<path d="M586 565 c-30 -39 -41 -42 -67 -19 -9 8 -19 11 -22 7 -6 -10 91 -102
98 -94 3 2 -2 13 -11 22 -16 17 -14 21 20 59 33 37 39 60 17 60 -5 0 -21 -16
-35 -35z"/>
<path d="M680 445 c0 -8 7 -15 15 -15 8 0 15 7 15 15 0 8 -7 15 -15 15 -8 0
-15 -7 -15 -15z"/>
<path d="M1767 444 c-8 -8 1 -24 14 -24 5 0 9 7 9 15 0 15 -12 20 -23 9z"/>
<path d="M1033 2013 c9 -2 25 -2 35 0 9 3 1 5 -18 5 -19 0 -27 -2 -17 -5z"/>
<path d="M1468 2013 c12 -2 32 -2 45 0 12 2 2 4 -23 4 -25 0 -35 -2 -22 -4z"/>
<path d="M933 2003 c15 -2 39 -2 55 0 15 2 2 4 -28 4 -30 0 -43 -2 -27 -4z"/>
<path d="M1578 2003 c6 -2 18 -2 25 0 6 3 1 5 -13 5 -14 0 -19 -2 -12 -5z"/>
<path d="M881 1899 c-107 -49 -199 -93 -205 -99 -12 -12 395 168 409 181 19
19 -15 5 -204 -82z"/>
<path d="M1426 1982 c14 -12 405 -184 410 -180 4 4 -399 188 -412 188 -4 0 -4
-4 2 -8z"/>
<path d="M982 1859 l-132 -99 -80 0 -80 0 0 -59 0 -59 -105 -77 c-58 -42 -105
-79 -105 -81 0 -7 15 2 118 78 l92 68 0 -84 0 -85 -102 -108 c-151 -159 -159
-175 -20 -38 l122 120 2 -105 c1 -58 1 -114 1 -125 0 -11 -35 -76 -77 -144
-42 -68 -75 -125 -73 -127 2 -2 35 46 73 106 38 60 72 109 77 110 4 0 7 -31 7
-70 l0 -70 -35 -14 c-29 -12 -35 -20 -34 -43 2 -24 2 -24 6 -5 7 34 36 44 138
45 92 2 92 2 149 -37 86 -59 131 -108 164 -178 17 -35 41 -73 54 -85 43 -40
108 -63 184 -63 86 0 128 13 142 45 7 15 20 25 31 25 22 0 61 -36 61 -55 0
-25 -24 -81 -42 -102 -25 -27 -102 -60 -170 -73 l-53 -9 59 4 c36 2 79 14 112
30 29 14 56 26 60 25 8 -1 44 97 44 120 0 8 -7 28 -15 44 l-15 29 102 -6 c57
-4 104 -10 106 -15 1 -5 9 -18 18 -28 13 -18 14 -17 8 9 -6 24 -3 27 20 27 23
0 26 4 26 38 0 34 3 39 34 50 39 15 106 84 106 110 0 10 5 23 11 29 13 13 6
29 -57 124 -24 37 -44 71 -44 77 0 5 13 12 29 15 34 7 97 59 106 89 7 19 8 19
36 -8 16 -15 29 -23 29 -18 0 6 -11 21 -25 34 -20 19 -25 33 -25 73 l0 50 -25
-23 -26 -24 -74 79 -74 80 -1 78 c0 42 3 77 6 77 5 0 140 -96 203 -144 11 -8
13 -8 8 1 -4 7 -55 47 -112 89 l-105 77 0 57 0 57 -81 2 -80 2 -117 86 c-64
47 -124 91 -132 97 -13 9 -13 8 -3 -4 7 -9 62 -52 122 -95 61 -44 110 -83 111
-87 0 -5 -21 -8 -47 -8 -46 0 -51 3 -127 78 -83 80 -79 66 9 -27 l50 -54 -35
7 c-23 4 -47 19 -68 44 l-34 37 22 -37 22 -38 -25 0 c-15 0 -28 9 -36 23 l-12
22 5 -23 c3 -15 -1 -25 -11 -29 -18 -7 -33 13 -33 44 0 12 -4 24 -8 27 -5 3
-6 -15 -2 -40 6 -39 4 -47 -14 -60 -21 -14 -21 -13 -27 58 l-5 73 -2 -67 c-1
-38 -5 -68 -9 -68 -5 0 -16 7 -27 15 -15 11 -18 23 -13 55 3 23 1 38 -4 34 -5
-3 -9 -18 -9 -33 0 -15 -3 -30 -6 -34 -10 -10 -34 4 -34 22 -1 14 -2 14 -11
-1 -5 -10 -21 -18 -35 -18 l-25 0 21 31 c12 16 20 33 17 36 -3 2 -16 -11 -29
-31 -19 -30 -29 -36 -58 -36 l-34 0 64 65 c35 35 62 67 59 69 -3 3 -38 -28
-79 -69 l-74 -75 -55 0 -55 0 128 94 c140 103 144 106 130 105 -5 0 -69 -45
-142 -100z m210 -109 c70 -20 68 -3 68 -512 l0 -457 -38 13 c-20 8 -61 17 -90
21 -39 5 -55 12 -64 28 -6 12 -23 31 -36 42 l-26 19 25 7 c22 7 22 7 -7 8 -30
1 -54 16 -54 34 0 5 7 7 15 4 8 -4 17 -2 20 3 4 6 -11 10 -33 10 -22 0 -60 9
-86 20 l-46 21 0 369 0 369 83 4 c182 7 234 6 269 -3z m323 -4 c51 -9 96 -12
123 -7 l42 8 0 -239 0 -238 -26 -11 c-15 -5 -39 -20 -53 -32 -23 -19 -25 -27
-20 -62 3 -22 9 -52 13 -67 5 -18 4 -28 -6 -31 -7 -2 -5 -3 4 -2 18 3 28 -14
28 -46 0 -12 13 -27 30 -37 16 -9 30 -25 30 -34 0 -21 1 -21 -56 -7 -25 6 -49
20 -55 30 -5 10 -20 18 -32 18 -12 0 -55 3 -96 7 -52 5 -72 4 -67 -4 3 -6 -3
-13 -14 -17 -11 -3 -20 -11 -20 -16 0 -5 -8 -9 -17 -10 -14 0 -13 -2 5 -9 29
-12 28 -24 -5 -37 l-28 -12 28 6 c20 4 27 1 27 -11 0 -9 -4 -16 -10 -16 -5 0
-9 -3 -8 -7 6 -29 -32 -86 -48 -71 -1 2 -4 206 -6 455 -3 511 -9 475 79 499
61 16 63 16 158 0z m203 -236 c-2 -185 0 -241 10 -245 6 -2 12 -19 12 -38 l0
-33 52 6 c64 9 88 34 88 96 0 54 17 58 25 7 13 -77 13 -77 57 -22 22 28 42 48
45 46 7 -8 -17 -90 -38 -123 -11 -18 -33 -37 -49 -44 -37 -15 -123 -8 -148 11
-9 8 -40 16 -69 18 -44 2 -56 -1 -77 -22 -14 -14 -27 -22 -30 -19 -24 23 27
97 74 107 17 4 27 11 24 17 -10 15 7 478 18 478 5 0 8 -100 6 -240z m-978
-134 c0 -233 -4 -367 -10 -371 -7 -4 -10 120 -10 364 0 241 4 371 10 371 6 0
10 -128 10 -364z m40 -1 c0 -237 -4 -365 -10 -365 -6 0 -10 83 -10 228 0 219
9 502 17 502 1 0 3 -164 3 -365z m44 -8 c-5 -226 -11 -357 -17 -357 -7 0 -8
70 -4 203 4 111 7 276 7 367 0 111 3 161 10 154 7 -7 8 -129 4 -367z m935 111
c-1 -145 -5 -249 -9 -233 -12 46 -12 495 0 495 6 0 10 -93 9 -262z m49 -6 c2
-229 0 -262 -13 -262 -13 0 -15 35 -15 266 0 208 3 265 13 262 9 -4 13 -68 15
-266z m54 -73 c16 -31 16 -44 7 -95 -11 -58 -23 -84 -40 -84 -5 0 -9 50 -9
111 0 120 9 135 42 68z m82 -119 l-20 -20 -10 51 -11 50 31 -30 31 -31 -21
-20z m-264 -155 c0 -51 -2 -55 -23 -55 -50 0 -61 42 -22 84 36 39 45 33 45
-29z m36 14 c1 -40 -5 -59 -17 -59 -5 0 -9 23 -9 51 0 58 24 66 26 8z m39 -9
c0 -18 -6 -35 -12 -37 -9 -3 -13 8 -13 37 0 29 4 40 13 38 6 -3 12 -20 12 -38z
m52 -24 c-11 -27 -27 -17 -27 16 0 30 1 31 16 16 9 -9 14 -24 11 -32z m58 -3
c16 -24 16 -26 0 -20 -9 4 -23 7 -31 7 -8 0 -14 9 -14 20 0 28 25 25 45 -7z
m11 -38 c18 -14 17 -14 -16 -16 -28 -1 -30 -3 -10 -6 26 -5 60 -30 60 -45 0
-17 -49 -58 -70 -58 -17 0 -20 6 -20 50 0 52 -8 61 -31 33 -17 -20 -71 -43
-100 -43 -30 0 -59 28 -59 55 0 18 5 21 24 18 13 -3 37 2 52 11 38 20 144 21
170 1z m-76 -95 c0 -22 -4 -40 -10 -40 -5 0 -10 18 -10 40 0 22 5 40 10 40 6
0 10 -18 10 -40z m150 -46 c0 -31 -7 -51 -26 -74 -48 -57 -76 -65 -214 -65
-118 0 -130 2 -202 32 -42 18 -92 35 -110 38 -27 5 -33 11 -33 33 -1 15 -4 37
-8 49 -18 51 102 62 199 17 83 -38 239 -46 307 -16 28 12 48 29 52 43 7 22 8
22 21 4 8 -10 14 -38 14 -61z m-190 31 c0 -16 -6 -25 -15 -25 -15 0 -21 31 -8
43 13 14 23 6 23 -18z m-50 -5 c0 -11 -4 -20 -10 -20 -5 0 -10 9 -10 20 0 11
5 20 10 20 6 0 10 -9 10 -20z m-298 -115 c9 -4 13 -16 10 -34 -3 -23 2 -33 27
-52 45 -33 39 -42 -26 -37 -63 6 -93 30 -93 77 0 43 36 63 82 46z m74 -26 c3
-5 -9 -9 -25 -9 -29 0 -39 9 -25 22 7 8 43 -2 50 -13z m-273 -25 c9 -3 17 -9
17 -13 0 -12 -123 13 -127 26 -4 10 60 3 110 -13z m397 -14 c0 -6 -35 -10 -85
-10 -50 0 -85 4 -85 10 0 6 35 10 85 10 50 0 85 -4 85 -10z m-309 -20 c24 -20
24 -20 5 -35 -11 -8 -28 -15 -38 -15 -11 0 -15 -5 -12 -15 12 -31 -7 -35 -56
-10 -64 33 -75 50 -26 41 21 -4 45 -10 54 -13 15 -6 15 -5 3 10 -12 15 -11 20
4 37 23 25 37 25 66 0z m499 -5 c0 -24 -2 -25 -62 -24 -35 1 -106 5 -158 9
l-95 7 143 1 c116 2 144 5 148 17 9 24 24 17 24 -10z m-597 8 c10 -16 -19 -28
-53 -22 l-35 6 40 3 40 3 -45 7 -45 7 47 1 c26 1 49 -1 51 -5z m210 -51 c50
-6 55 -18 15 -42 -24 -14 -51 -20 -95 -20 -60 0 -63 1 -63 24 0 18 9 27 38 39
20 8 44 12 52 9 8 -3 32 -7 53 -10z"/>
<path d="M1023 1673 c9 -2 23 -2 30 0 6 3 -1 5 -18 5 -16 0 -22 -2 -12 -5z"/>
<path d="M1088 1673 c6 -2 18 -2 25 0 6 3 1 5 -13 5 -14 0 -19 -2 -12 -5z"/>
<path d="M1162 1660 c14 -4 32 -11 40 -15 7 -3 4 1 -6 9 -11 9 -29 16 -40 15
-17 -1 -16 -2 6 -9z"/>
<path d="M925 1635 c-3 -16 -9 -36 -11 -44 -4 -12 -2 -12 12 -1 13 12 17 11
25 -1 14 -23 11 10 -5 46 l-13 30 -8 -30z"/>
<path d="M1063 1623 c9 -2 23 -2 30 0 6 3 -1 5 -18 5 -16 0 -22 -2 -12 -5z"/>
<path d="M1138 1613 c6 -2 18 -2 25 0 6 3 1 5 -13 5 -14 0 -19 -2 -12 -5z"/>
<path d="M1175 1560 c27 -12 43 -12 25 0 -8 5 -22 9 -30 9 -10 0 -8 -3 5 -9z"/>
<path d="M915 1530 c-16 -7 -13 -9 18 -9 20 -1 37 4 37 9 0 12 -27 12 -55 0z"/>
<path d="M1073 1533 c9 -2 23 -2 30 0 6 3 -1 5 -18 5 -16 0 -22 -2 -12 -5z"/>
<path d="M1140 1528 c3 -3 21 -10 40 -17 19 -6 30 -7 25 -2 -6 5 -23 13 -40
17 -16 4 -28 5 -25 2z"/>
<path d="M898 1483 c7 -3 16 -2 19 1 4 3 -2 6 -13 5 -11 0 -14 -3 -6 -6z"/>
<path d="M963 1483 c15 -2 37 -2 50 0 12 2 0 4 -28 4 -27 0 -38 -2 -22 -4z"/>
<path d="M1068 1483 c6 -2 18 -2 25 0 6 3 1 5 -13 5 -14 0 -19 -2 -12 -5z"/>
<path d="M1125 1480 c11 -5 27 -9 35 -9 13 -1 13 0 0 9 -8 5 -24 9 -35 9 l-20
0 20 -9z"/>
<path d="M913 1433 c15 -2 39 -2 55 0 15 2 2 4 -28 4 -30 0 -43 -2 -27 -4z"/>
<path d="M1018 1433 c7 -3 16 -2 19 1 4 3 -2 6 -13 5 -11 0 -14 -3 -6 -6z"/>
<path d="M1068 1433 c6 -2 18 -2 25 0 6 3 1 5 -13 5 -14 0 -19 -2 -12 -5z"/>
<path d="M1128 1433 c7 -3 16 -2 19 1 4 3 -2 6 -13 5 -11 0 -14 -3 -6 -6z"/>
<path d="M1175 1420 c27 -12 43 -12 25 0 -8 5 -22 9 -30 9 -10 0 -8 -3 5 -9z"/>
<path d="M908 1393 c6 -2 18 -2 25 0 6 3 1 5 -13 5 -14 0 -19 -2 -12 -5z"/>
<path d="M1028 1383 c7 -3 16 -2 19 1 4 3 -2 6 -13 5 -11 0 -14 -3 -6 -6z"/>
<path d="M1138 1383 c6 -2 18 -2 25 0 6 3 1 5 -13 5 -14 0 -19 -2 -12 -5z"/>
<path d="M1180 1376 c0 -2 7 -7 16 -10 8 -3 12 -2 9 4 -6 10 -25 14 -25 6z"/>
<path d="M918 1343 c12 -2 32 -2 45 0 12 2 2 4 -23 4 -25 0 -35 -2 -22 -4z"/>
<path d="M1008 1343 c6 -2 18 -2 25 0 6 3 1 5 -13 5 -14 0 -19 -2 -12 -5z"/>
<path d="M1078 1343 c6 -2 18 -2 25 0 6 3 1 5 -13 5 -14 0 -19 -2 -12 -5z"/>
<path d="M1158 1333 c6 -2 18 -2 25 0 6 3 1 5 -13 5 -14 0 -19 -2 -12 -5z"/>
<path d="M913 1293 c15 -2 37 -2 50 0 12 2 0 4 -28 4 -27 0 -38 -2 -22 -4z"/>
<path d="M1068 1293 c7 -3 16 -2 19 1 4 3 -2 6 -13 5 -11 0 -14 -3 -6 -6z"/>
<path d="M1133 1283 c9 -2 25 -2 35 0 9 3 1 5 -18 5 -19 0 -27 -2 -17 -5z"/>
<path d="M1198 1273 c7 -3 16 -2 19 1 4 3 -2 6 -13 5 -11 0 -14 -3 -6 -6z"/>
<path d="M953 1243 c9 -2 23 -2 30 0 6 3 -1 5 -18 5 -16 0 -22 -2 -12 -5z"/>
<path d="M1033 1243 c9 -2 23 -2 30 0 6 3 -1 5 -18 5 -16 0 -22 -2 -12 -5z"/>
<path d="M1150 1240 c34 -11 60 -11 35 0 -11 5 -29 8 -40 8 -16 0 -15 -2 5 -8z"/>
<path d="M938 1193 c12 -2 30 -2 40 0 9 3 -1 5 -23 4 -22 0 -30 -2 -17 -4z"/>
<path d="M1028 1193 c7 -3 16 -2 19 1 4 3 -2 6 -13 5 -11 0 -14 -3 -6 -6z"/>
<path d="M1075 1195 c23 -8 83 -10 79 -3 -3 4 -24 8 -47 7 -23 0 -37 -2 -32
-4z"/>
<path d="M1180 1176 c0 -2 7 -7 16 -10 8 -3 12 -2 9 4 -6 10 -25 14 -25 6z"/>
<path d="M898 1153 c6 -2 18 -2 25 0 6 3 1 5 -13 5 -14 0 -19 -2 -12 -5z"/>
<path d="M978 1153 c6 -2 18 -2 25 0 6 3 1 5 -13 5 -14 0 -19 -2 -12 -5z"/>
<path d="M1050 1149 c0 -5 9 -9 20 -9 11 0 20 2 20 4 0 2 -9 6 -20 9 -11 3
-20 1 -20 -4z"/>
<path d="M1135 1142 c35 -16 81 -24 70 -13 -5 5 -28 12 -50 15 -27 4 -33 3
-20 -2z"/>
<path d="M923 1103 c15 -2 37 -2 50 0 12 2 0 4 -28 4 -27 0 -38 -2 -22 -4z"/>
<path d="M1071 1096 c2 -2 27 -6 54 -10 34 -4 45 -3 35 4 -14 9 -99 15 -89 6z"/>
<path d="M1180 1076 c0 -2 7 -7 16 -10 8 -3 12 -2 9 4 -6 10 -25 14 -25 6z"/>
<path d="M923 1053 c15 -2 39 -2 55 0 15 2 2 4 -28 4 -30 0 -43 -2 -27 -4z"/>
<path d="M1055 1049 c22 -4 49 -8 60 -7 16 0 15 2 -5 8 -14 4 -41 8 -60 8
l-35 0 40 -9z"/>
<path d="M1178 1028 c5 -5 16 -8 23 -6 8 3 3 7 -10 11 -17 4 -21 3 -13 -5z"/>
<path d="M1088 1003 c6 -2 18 -2 25 0 6 3 1 5 -13 5 -14 0 -19 -2 -12 -5z"/>
<path d="M1158 993 c7 -3 16 -2 19 1 4 3 -2 6 -13 5 -11 0 -14 -3 -6 -6z"/>
<path d="M1051 956 c2 -2 29 -6 59 -9 37 -4 50 -3 40 3 -14 9 -109 15 -99 6z"/>
<path d="M1107 910 c9 -9 97 -21 89 -13 -3 4 -26 9 -51 13 -25 4 -42 4 -38 0z"/>
<path d="M1130 860 c8 -5 30 -10 49 -10 45 0 37 6 -19 14 -31 4 -40 3 -30 -4z"/>
<path d="M1310 1660 c-11 -7 -5 -8 20 -4 43 8 51 14 19 14 -13 0 -31 -5 -39
-10z"/>
<path d="M1398 1663 c6 -2 18 -2 25 0 6 3 1 5 -13 5 -14 0 -19 -2 -12 -5z"/>
<path d="M1465 1660 c3 -5 14 -10 23 -10 15 0 15 2 2 10 -20 13 -33 13 -25 0z"/>
<path d="M1608 1663 c7 -3 16 -2 19 1 4 3 -2 6 -13 5 -11 0 -14 -3 -6 -6z"/>
<path d="M1538 1653 c6 -2 18 -2 25 0 6 3 1 5 -13 5 -14 0 -19 -2 -12 -5z"/>
<path d="M1300 1619 c-11 -7 -4 -8 25 -3 50 8 58 14 19 14 -16 0 -36 -5 -44
-11z"/>
<path d="M1520 1610 c0 -5 4 -10 9 -10 6 0 13 5 16 10 3 6 -1 10 -9 10 -9 0
-16 -4 -16 -10z"/>
<path d="M1598 1613 c6 -2 18 -2 25 0 6 3 1 5 -13 5 -14 0 -19 -2 -12 -5z"/>
<path d="M1310 1580 c-24 -8 -24 -8 7 -9 17 -1 35 4 38 9 7 11 -9 11 -45 0z"/>
<path d="M1398 1573 c7 -3 16 -2 19 1 4 3 -2 6 -13 5 -11 0 -14 -3 -6 -6z"/>
<path d="M1455 1570 c4 -6 11 -8 16 -5 14 9 11 15 -7 15 -8 0 -12 -5 -9 -10z"/>
<path d="M1500 1570 c0 -5 9 -10 21 -10 11 0 17 5 14 10 -3 6 -13 10 -21 10
-8 0 -14 -4 -14 -10z"/>
<path d="M1566 1569 c6 -11 54 -12 54 -1 0 4 -13 7 -30 8 -16 1 -27 -3 -24 -7z"/>
<path d="M1300 1530 c-11 -7 -5 -8 20 -4 43 8 51 14 19 14 -13 0 -31 -5 -39
-10z"/>
<path d="M1390 1536 c0 -2 11 -6 25 -8 13 -3 22 -1 19 3 -5 9 -44 13 -44 5z"/>
<path d="M1608 1533 c7 -3 16 -2 19 1 4 3 -2 6 -13 5 -11 0 -14 -3 -6 -6z"/>
<path d="M1468 1523 c6 -2 18 -2 25 0 6 3 1 5 -13 5 -14 0 -19 -2 -12 -5z"/>
<path d="M1538 1523 c6 -2 18 -2 25 0 6 3 1 5 -13 5 -14 0 -19 -2 -12 -5z"/>
<path d="M1296 1482 c-3 -5 8 -6 25 -4 16 2 29 6 29 8 0 8 -49 4 -54 -4z"/>
<path d="M1370 1480 c0 -5 5 -10 10 -10 6 0 10 5 10 10 0 6 -4 10 -10 10 -5 0
-10 -4 -10 -10z"/>
<path d="M1420 1480 c0 -5 7 -10 15 -10 8 0 15 5 15 10 0 6 -7 10 -15 10 -8 0
-15 -4 -15 -10z"/>
<path d="M1543 1473 c9 -2 23 -2 30 0 6 3 -1 5 -18 5 -16 0 -22 -2 -12 -5z"/>
<path d="M1608 1473 c7 -3 16 -2 19 1 4 3 -2 6 -13 5 -11 0 -14 -3 -6 -6z"/>
<path d="M1300 1430 c-12 -8 -12 -10 5 -10 11 0 27 5 35 10 12 8 12 10 -5 10
-11 0 -27 -5 -35 -10z"/>
<path d="M1378 1433 c6 -2 18 -2 25 0 6 3 1 5 -13 5 -14 0 -19 -2 -12 -5z"/>
<path d="M1498 1423 c7 -3 16 -2 19 1 4 3 -2 6 -13 5 -11 0 -14 -3 -6 -6z"/>
<path d="M1575 1420 c11 -5 27 -9 35 -9 13 -1 13 0 0 9 -8 5 -24 9 -35 9 l-20
0 20 -9z"/>
<path d="M1295 1370 c-7 -12 12 -12 40 0 18 8 17 9 -7 9 -15 1 -30 -3 -33 -9z"/>
<path d="M1375 1370 c4 -6 11 -8 16 -5 14 9 11 15 -7 15 -8 0 -12 -5 -9 -10z"/>
<path d="M1438 1363 c7 -3 16 -2 19 1 4 3 -2 6 -13 5 -11 0 -14 -3 -6 -6z"/>
<path d="M1498 1363 c7 -3 16 -2 19 1 4 3 -2 6 -13 5 -11 0 -14 -3 -6 -6z"/>
<path d="M1550 1360 c0 -5 7 -10 15 -10 8 0 15 5 15 10 0 6 -7 10 -15 10 -8 0
-15 -4 -15 -10z"/>
<path d="M1300 1321 c0 -5 9 -7 20 -4 11 3 20 7 20 9 0 2 -9 4 -20 4 -11 0
-20 -4 -20 -9z"/>
<path d="M1435 1320 c3 -5 8 -10 11 -10 2 0 4 5 4 10 0 6 -5 10 -11 10 -5 0
-7 -4 -4 -10z"/>
<path d="M1555 1310 c3 -5 13 -10 21 -10 8 0 14 5 14 10 0 6 -9 10 -21 10 -11
0 -17 -4 -14 -10z"/>
<path d="M1318 1273 c12 -2 30 -2 40 0 9 3 -1 5 -23 4 -22 0 -30 -2 -17 -4z"/>
<path d="M1398 1273 c6 -2 18 -2 25 0 6 3 1 5 -13 5 -14 0 -19 -2 -12 -5z"/>
<path d="M1465 1270 c3 -5 11 -10 16 -10 6 0 7 5 4 10 -3 6 -11 10 -16 10 -6
0 -7 -4 -4 -10z"/>
<path d="M1528 1263 c7 -3 16 -2 19 1 4 3 -2 6 -13 5 -11 0 -14 -3 -6 -6z"/>
<path d="M1318 1223 c12 -2 30 -2 40 0 9 3 -1 5 -23 4 -22 0 -30 -2 -17 -4z"/>
<path d="M1418 1223 c7 -3 16 -2 19 1 4 3 -2 6 -13 5 -11 0 -14 -3 -6 -6z"/>
<path d="M1525 1210 c3 -5 10 -10 16 -10 5 0 9 5 9 10 0 6 -7 10 -16 10 -8 0
-12 -4 -9 -10z"/>
<path d="M1306 1182 c-3 -5 8 -6 25 -4 16 2 29 6 29 8 0 8 -49 4 -54 -4z"/>
<path d="M1398 1183 c7 -3 16 -2 19 1 4 3 -2 6 -13 5 -11 0 -14 -3 -6 -6z"/>
<path d="M1450 1180 c0 -6 7 -10 15 -10 8 0 15 2 15 4 0 2 -7 6 -15 10 -8 3
-15 1 -15 -4z"/>
<path d="M1538 1163 c6 -2 18 -2 25 0 6 3 1 5 -13 5 -14 0 -19 -2 -12 -5z"/>
<path d="M1310 1130 c-11 -8 -7 -9 15 -4 37 8 45 14 19 14 -10 0 -26 -5 -34
-10z"/>
<path d="M1388 1133 c7 -3 16 -2 19 1 4 3 -2 6 -13 5 -11 0 -14 -3 -6 -6z"/>
<path d="M1440 1136 c0 -2 7 -6 15 -10 8 -3 15 -1 15 4 0 6 -7 10 -15 10 -8 0
-15 -2 -15 -4z"/>
<path d="M1508 1123 c7 -3 16 -2 19 1 4 3 -2 6 -13 5 -11 0 -14 -3 -6 -6z"/>
<path d="M1303 1083 c9 -2 25 -2 35 0 9 3 1 5 -18 5 -19 0 -27 -2 -17 -5z"/>
<path d="M1398 1083 c7 -3 16 -2 19 1 4 3 -2 6 -13 5 -11 0 -14 -3 -6 -6z"/>
<path d="M1458 1073 c6 -2 18 -2 25 0 6 3 1 5 -13 5 -14 0 -19 -2 -12 -5z"/>
<path d="M1295 1040 c-4 -7 3 -8 22 -4 38 9 42 14 10 14 -14 0 -29 -5 -32 -10z"/>
<path d="M1458 1033 c6 -2 18 -2 25 0 6 3 1 5 -13 5 -14 0 -19 -2 -12 -5z"/>
<path d="M1568 1023 c6 -2 18 -2 25 0 6 3 1 5 -13 5 -14 0 -19 -2 -12 -5z"/>
<path d="M1446 915 c-4 -20 -4 -40 -1 -45 8 -13 45 -13 45 0 0 6 -7 10 -16 10
-13 0 -15 7 -11 35 7 46 -9 46 -17 0z"/>
<path d="M1527 884 c-9 -24 -12 -44 -8 -44 11 0 41 79 32 84 -4 3 -15 -15 -24
-40z"/>
<path d="M1582 888 c-19 -19 -14 -56 10 -69 18 -10 24 -8 35 7 17 23 17 34 -2
34 -9 0 -12 -6 -9 -15 4 -9 0 -15 -9 -15 -20 0 -27 20 -15 43 6 12 16 16 30
11 14 -4 18 -2 14 5 -9 15 -39 14 -54 -1z"/>
<path d="M1783 892 c-24 -4 -31 -18 -12 -24 6 -2 14 -19 19 -38 l8 -35 1 42
c1 23 6 43 13 45 19 7 -4 14 -29 10z"/>
<path d="M1671 843 c0 -40 2 -44 10 -25 10 26 35 25 33 -2 -1 -9 2 -16 7 -16
5 0 8 21 8 48 -1 26 -3 39 -6 30 -5 -22 -33 -24 -33 -3 0 8 -4 15 -10 15 -5 0
-10 -21 -9 -47z"/>
<path d="M790 944 c-6 -16 -13 -35 -15 -42 -4 -10 31 -32 51 -32 13 0 1 20
-15 25 -17 5 -18 10 -9 36 6 16 8 33 4 36 -3 3 -10 -7 -16 -23z"/>
<path d="M866 895 c-19 -35 -19 -36 0 -49 10 -8 23 -12 28 -9 5 4 2 11 -7 18
-21 15 -22 29 -2 22 8 -4 17 -2 20 3 3 4 -1 10 -7 13 -7 2 -10 8 -6 12 4 4 14
2 23 -5 12 -10 15 -10 15 3 0 13 -20 27 -39 27 -3 0 -15 -16 -25 -35z"/>
<path d="M963 868 c2 -7 -7 -25 -21 -40 -14 -16 -21 -28 -15 -28 5 0 18 9 28
20 10 12 24 19 31 16 21 -8 25 6 7 26 -18 21 -37 24 -30 6z"/>
<path d="M1040 754 c0 -8 -13 -20 -30 -25 -16 -6 -27 -15 -24 -20 3 -5 19 -2
37 7 22 12 32 13 35 5 2 -6 8 -9 12 -6 11 7 -9 55 -22 55 -4 0 -8 -7 -8 -16z"/>
<path d="M1040 669 c-27 -23 -30 -29 -13 -24 25 7 42 -13 22 -26 -7 -4 -11
-10 -8 -13 7 -7 69 34 69 46 0 5 -5 6 -10 3 -6 -4 -19 -4 -28 0 -16 6 -16 7 1
20 10 7 14 15 10 18 -5 3 -24 -8 -43 -24z"/>
<path d="M1099 604 c-21 -35 -22 -37 -4 -50 10 -7 22 -11 28 -7 5 3 3 10 -7
15 -24 14 -20 31 6 22 20 -6 21 -5 9 10 -11 13 -11 16 0 16 33 -1 42 -16 30
-50 -13 -40 -13 -40 -1 -40 6 0 10 7 10 15 0 24 20 17 21 -7 l0 -23 9 21 c5
12 13 25 19 29 21 12 11 36 -18 41 -17 4 -38 15 -47 25 -24 26 -29 24 -55 -17z
m111 -34 c0 -5 -7 -10 -15 -10 -8 0 -15 5 -15 10 0 6 7 10 15 10 8 0 15 -4 15
-10z"/>
<path d="M1444 626 c-18 -14 -18 -16 -1 -50 19 -40 25 -43 53 -20 18 15 18 15
-8 9 -16 -3 -28 -1 -28 5 0 5 5 10 10 10 6 0 10 5 10 11 0 6 -7 9 -15 5 -20
-7 -19 11 1 22 10 5 12 12 7 15 -6 4 -19 0 -29 -7z"/>
<path d="M1363 592 c-19 -12 5 -82 27 -82 26 0 46 28 32 42 -7 7 -12 20 -12
30 0 19 -25 24 -47 10z m32 -22 c-3 -5 -10 -10 -16 -10 -5 0 -9 5 -9 10 0 6 7
10 16 10 8 0 12 -4 9 -10z m15 -30 c0 -5 -7 -10 -15 -10 -8 0 -15 5 -15 10 0
6 7 10 15 10 8 0 15 -4 15 -10z"/>
<path d="M1248 546 c-2 -31 1 -46 9 -46 6 0 18 -3 27 -6 9 -3 16 -2 16 4 0 5
-10 13 -22 17 -20 6 -20 8 -5 12 9 2 17 8 17 13 0 5 -8 10 -17 13 -15 3 -14 6
7 15 14 6 20 11 13 11 -6 1 -18 4 -26 7 -12 4 -16 -5 -19 -40z"/>
<path d="M930 325 c-18 -47 -22 -73 -12 -79 5 -3 15 13 21 35 7 23 15 47 18
55 3 8 0 14 -6 14 -6 0 -16 -11 -21 -25z"/>
<path d="M1510 338 c-19 -5 -37 -11 -39 -13 -2 -2 3 -27 10 -55 11 -44 16 -50
34 -45 11 3 32 8 48 11 15 4 27 11 27 16 0 10 -28 6 -65 -8 -13 -5 -16 -2 -13
12 1 10 14 21 28 25 25 7 21 11 -15 13 -34 2 -28 21 9 30 20 5 36 13 36 18 0
10 -15 9 -60 -4z"/>
<path d="M984 281 c-8 -40 -8 -51 3 -55 8 -3 13 2 13 14 0 10 4 21 9 25 12 7
41 -22 41 -41 0 -8 7 -14 15 -14 12 0 13 4 5 19 -14 26 -13 28 10 34 23 6 26
29 7 45 -7 6 -31 14 -53 17 l-40 7 -10 -51z m85 15 c16 -19 -1 -29 -34 -20
-14 3 -25 12 -25 20 0 18 44 18 59 0z"/>
<path d="M1420 285 c0 -19 -3 -35 -7 -35 -5 0 -22 13 -39 29 -41 39 -55 28
-47 -37 7 -62 23 -69 23 -11 l0 40 37 -30 c45 -37 68 -41 59 -8 -3 12 -6 37
-6 55 0 17 -4 32 -10 32 -5 0 -10 -16 -10 -35z"/>
<path d="M1123 296 c3 -8 11 -32 18 -54 6 -23 17 -43 23 -45 6 -3 26 20 43 49
20 33 27 54 19 54 -6 0 -22 -17 -34 -37 l-21 -38 -17 43 c-9 23 -21 42 -27 42
-5 0 -7 -6 -4 -14z"/>
<path d="M1260 245 c0 -37 4 -55 13 -55 8 0 11 16 9 55 -5 71 -22 71 -22 0z"/>
<path d="M745 2361 c-8 -15 3 -31 21 -31 9 0 14 7 12 17 -4 20 -24 28 -33 14z"/>
<path d="M1734 2359 c-3 -6 -2 -15 4 -21 13 -13 32 -2 32 18 0 16 -26 19 -36
3z"/>
<path d="M690 2320 c0 -11 7 -20 15 -20 8 0 15 9 15 20 0 11 -7 20 -15 20 -8
0 -15 -9 -15 -20z"/>
<path d="M1790 2326 c0 -8 4 -17 9 -20 11 -7 33 18 24 27 -12 12 -33 7 -33 -7z"/>
<path d="M634 2299 c-10 -17 13 -36 27 -22 12 12 4 33 -11 33 -5 0 -12 -5 -16
-11z"/>
<path d="M1846 2301 c-7 -11 18 -33 27 -24 4 3 7 12 7 20 0 15 -26 18 -34 4z"/>
<path d="M583 2265 c-7 -20 2 -29 21 -22 9 4 13 13 10 22 -8 19 -23 19 -31 0z"/>
<path d="M1900 2260 c0 -15 5 -20 18 -18 9 2 17 10 17 18 0 8 -8 16 -17 18
-13 2 -18 -3 -18 -18z"/>
<path d="M1963 2243 c-21 -7 -15 -33 7 -33 11 0 20 6 20 14 0 18 -11 25 -27
19z"/>
<path d="M530 2220 c0 -11 7 -20 15 -20 8 0 15 9 15 20 0 11 -7 20 -15 20 -8
0 -15 -9 -15 -20z"/>
<path d="M2007 2204 c-14 -15 -6 -34 14 -34 14 0 19 5 17 17 -3 18 -20 27 -31
17z"/>
<path d="M477 2194 c-9 -10 4 -34 19 -34 8 0 14 9 14 20 0 19 -19 27 -33 14z"/>
<path d="M2057 2164 c-14 -14 -7 -35 11 -32 9 2 17 10 17 17 0 16 -18 25 -28
15z"/>
<path d="M430 2140 c0 -11 7 -20 15 -20 8 0 15 9 15 20 0 11 -7 20 -15 20 -8
0 -15 -9 -15 -20z"/>
<path d="M387 2114 c-14 -15 -6 -34 14 -34 14 0 19 5 17 17 -3 18 -20 27 -31
17z"/>
<path d="M2094 2109 c-3 -6 -1 -16 4 -21 13 -13 45 8 36 23 -7 12 -31 11 -40
-2z"/>
<path d="M2147 2074 c-14 -14 -7 -35 11 -32 9 2 17 10 17 17 0 16 -18 25 -28
15z"/>
<path d="M340 2050 c0 -11 6 -20 13 -20 19 0 27 10 20 26 -8 21 -33 17 -33 -6z"/>
<path d="M2187 2024 c-14 -14 -7 -35 11 -32 9 2 17 10 17 17 0 16 -18 25 -28
15z"/>
<path d="M300 2000 c0 -11 4 -20 9 -20 13 0 32 26 24 33 -13 14 -33 6 -33 -13z"/>
<path d="M2227 1974 c-14 -14 -7 -35 11 -32 9 2 17 10 17 17 0 16 -18 25 -28
15z"/>
<path d="M262 1953 c2 -10 10 -18 18 -18 22 0 18 29 -3 33 -14 3 -18 -1 -15
-15z"/>
<path d="M2260 1915 c-10 -12 -9 -16 5 -21 23 -9 40 10 22 25 -11 9 -17 8 -27
-4z"/>
<path d="M227 1914 c-14 -15 -6 -34 14 -34 14 0 19 5 17 17 -3 18 -20 27 -31
17z"/>
<path d="M2290 1856 c0 -8 4 -17 8 -20 13 -8 35 11 28 23 -10 16 -36 14 -36
-3z"/>
<path d="M190 1845 c0 -8 9 -15 20 -15 11 0 20 7 20 15 0 8 -9 15 -20 15 -11
0 -20 -7 -20 -15z"/>
<path d="M2327 1814 c-14 -15 -6 -34 14 -34 14 0 19 5 17 17 -3 18 -20 27 -31
17z"/>
<path d="M167 1804 c-14 -14 -7 -35 11 -32 9 2 17 10 17 17 0 16 -18 25 -28
15z"/>
<path d="M2352 1743 c4 -21 33 -25 33 -3 0 8 -8 16 -18 18 -14 3 -18 -1 -15
-15z"/>
<path d="M135 1741 c-8 -15 3 -31 21 -31 9 0 14 7 12 17 -4 20 -24 28 -33 14z"/>
<path d="M2372 1683 c2 -10 10 -18 18 -18 8 0 16 8 18 18 2 12 -3 17 -18 17
-15 0 -20 -5 -18 -17z"/>
<path d="M112 1673 c4 -21 33 -25 33 -3 0 8 -8 16 -18 18 -14 3 -18 -1 -15
-15z"/>
<path d="M2395 1630 c-8 -14 3 -30 21 -30 8 0 14 9 14 20 0 21 -24 28 -35 10z"/>
<path d="M92 1613 c4 -21 33 -25 33 -3 0 8 -8 16 -18 18 -14 3 -18 -1 -15 -15z"/>
<path d="M2414 1569 c-10 -17 13 -36 27 -22 12 12 4 33 -11 33 -5 0 -12 -5
-16 -11z"/>
<path d="M72 1553 c4 -21 33 -25 33 -3 0 8 -8 16 -18 18 -14 3 -18 -1 -15 -15z"/>
<path d="M2430 1500 c0 -15 5 -20 18 -18 9 2 17 10 17 18 0 8 -8 16 -17 18
-13 2 -18 -3 -18 -18z"/>
<path d="M55 1501 c-8 -15 3 -31 21 -31 9 0 14 7 12 17 -4 20 -24 28 -33 14z"/>
<path d="M2444 1445 c-9 -22 5 -38 22 -24 18 15 18 25 -1 33 -9 3 -18 -1 -21
-9z"/>
<path d="M45 1441 c-8 -15 3 -31 21 -31 9 0 14 7 12 17 -4 20 -24 28 -33 14z"/>
<path d="M2450 1375 c0 -8 7 -15 15 -15 8 0 15 7 15 15 0 8 -7 15 -15 15 -8 0
-15 -7 -15 -15z"/>
<path d="M36 1371 c-3 -5 0 -14 8 -20 10 -8 16 -8 25 2 6 8 8 17 4 20 -9 10
-31 9 -37 -2z"/>
<path d="M2455 1320 c-7 -12 2 -30 16 -30 5 0 9 9 9 20 0 21 -15 27 -25 10z"/>
<path d="M32 1303 c4 -21 33 -25 33 -3 0 8 -8 16 -18 18 -14 3 -18 -1 -15 -15z"/>
<path d="M2462 1258 c-16 -16 -15 -28 3 -28 8 0 15 9 15 20 0 23 -2 24 -18 8z"/>
<path d="M37 1254 c-14 -15 -6 -34 14 -34 14 0 19 5 17 17 -3 18 -20 27 -31
17z"/>
<path d="M43 1193 c-21 -7 -15 -33 7 -33 11 0 20 6 20 14 0 18 -11 25 -27 19z"/>
<path d="M2450 1186 c0 -8 7 -16 15 -20 10 -4 15 1 15 14 0 11 -7 20 -15 20
-8 0 -15 -6 -15 -14z"/>
<path d="M2450 1120 c0 -11 7 -20 15 -20 8 0 15 9 15 20 0 11 -7 20 -15 20 -8
0 -15 -9 -15 -20z"/>
<path d="M40 1110 c0 -15 5 -20 18 -18 9 2 17 10 17 18 0 8 -8 16 -17 18 -13
2 -18 -3 -18 -18z"/>
<path d="M2447 1074 c-14 -15 -6 -34 14 -34 14 0 19 5 17 17 -3 18 -20 27 -31
17z"/>
<path d="M45 1061 c-8 -15 3 -31 21 -31 9 0 14 7 12 17 -4 20 -24 28 -33 14z"/>
<path d="M2434 1006 c-4 -10 -2 -22 4 -28 8 -8 13 -7 18 6 4 10 2 22 -4 28 -8
8 -13 7 -18 -6z"/>
<path d="M60 985 c0 -10 7 -15 18 -13 21 4 19 22 -2 26 -10 2 -16 -3 -16 -13z"/>
<path d="M2416 941 c-7 -11 18 -33 27 -24 4 3 7 12 7 20 0 15 -26 18 -34 4z"/>
<path d="M70 925 c0 -8 9 -15 20 -15 11 0 20 7 20 15 0 8 -9 15 -20 15 -11 0
-20 -7 -20 -15z"/>
<path d="M2400 876 c0 -21 21 -31 30 -15 5 7 6 17 4 21 -9 14 -34 9 -34 -6z"/>
<path d="M92 863 c2 -10 10 -18 18 -18 8 0 16 8 18 18 2 12 -3 17 -18 17 -15
0 -20 -5 -18 -17z"/>
<path d="M2374 819 c-7 -12 15 -31 28 -23 4 3 8 12 8 20 0 17 -26 19 -36 3z"/>
<path d="M114 809 c-8 -14 11 -33 25 -25 16 10 13 36 -3 36 -8 0 -18 -5 -22
-11z"/>
<path d="M2350 756 c0 -15 24 -28 34 -19 13 14 5 33 -14 33 -11 0 -20 -6 -20
-14z"/>
<path d="M135 750 c-8 -12 20 -24 35 -15 6 3 8 11 5 16 -8 12 -32 12 -40 -1z"/>
<path d="M2325 711 c-8 -15 3 -31 21 -31 9 0 14 7 12 17 -4 20 -24 28 -33 14z"/>
<path d="M171 697 c-9 -11 -8 -17 4 -27 12 -10 16 -9 21 5 9 23 -10 40 -25 22z"/>
<path d="M2295 650 c-8 -14 3 -30 21 -30 8 0 14 9 14 20 0 21 -24 28 -35 10z"/>
<path d="M194 639 c-8 -14 11 -33 25 -25 6 4 11 14 11 22 0 16 -26 19 -36 3z"/>
<path d="M2265 601 c-8 -15 3 -31 21 -31 9 0 14 7 12 17 -4 20 -24 28 -33 14z"/>
<path d="M231 587 c-9 -11 -8 -17 4 -27 12 -10 16 -9 21 5 9 23 -10 40 -25 22z"/>
<path d="M271 540 c-16 -9 -6 -30 15 -30 15 0 20 25 6 34 -4 2 -14 1 -21 -4z"/>
<path d="M2226 541 c-7 -11 18 -33 27 -24 4 3 7 12 7 20 0 15 -26 18 -34 4z"/>
<path d="M313 493 c-21 -7 -15 -33 7 -33 11 0 20 6 20 14 0 18 -11 25 -27 19z"/>
<path d="M2190 486 c0 -8 4 -17 8 -20 13 -8 35 11 28 23 -10 16 -36 14 -36 -3z"/>
<path d="M2154 446 c-4 -10 -2 -22 4 -28 8 -8 13 -7 18 6 4 10 2 22 -4 28 -8
8 -13 7 -18 -6z"/>
<path d="M351 440 c-16 -9 -6 -30 15 -30 15 0 20 25 6 34 -4 2 -14 1 -21 -4z"/>
<path d="M2105 401 c-8 -15 3 -31 21 -31 9 0 14 7 12 17 -4 20 -24 28 -33 14z"/>
<path d="M392 383 c4 -21 33 -25 33 -3 0 8 -8 16 -18 18 -14 3 -18 -1 -15 -15z"/>
<path d="M2064 355 c-9 -22 5 -38 22 -24 18 15 18 25 -1 33 -9 3 -18 -1 -21
-9z"/>
<path d="M435 350 c-8 -14 3 -30 21 -30 8 0 14 9 14 20 0 21 -24 28 -35 10z"/>
<path d="M485 311 c-8 -15 3 -31 21 -31 9 0 14 7 12 17 -4 20 -24 28 -33 14z"/>
<path d="M2012 303 c4 -21 33 -25 33 -3 0 8 -8 16 -18 18 -14 3 -18 -1 -15
-15z"/>
<path d="M1964 275 c-9 -23 10 -40 25 -22 9 11 8 17 -4 27 -12 10 -16 9 -21
-5z"/>
<path d="M537 274 c-14 -15 -6 -34 14 -34 14 0 19 5 17 17 -3 18 -20 27 -31
17z"/>
<path d="M1913 234 c-7 -19 2 -28 22 -21 19 8 19 23 0 31 -9 3 -18 -1 -22 -10z"/>
<path d="M586 231 c-3 -5 0 -14 8 -20 10 -8 16 -8 25 2 6 8 8 17 4 20 -9 10
-31 9 -37 -2z"/>
<path d="M1857 214 c-14 -15 -6 -34 14 -34 14 0 19 5 17 17 -3 18 -20 27 -31
17z"/>
<path d="M644 199 c-10 -17 13 -36 27 -22 12 12 4 33 -11 33 -5 0 -12 -5 -16
-11z"/>
<path d="M1804 176 c-4 -10 -2 -22 4 -28 8 -8 13 -7 18 6 4 10 2 22 -4 28 -8
8 -13 7 -18 -6z"/>
<path d="M696 171 c-3 -5 1 -15 10 -22 13 -10 17 -10 24 1 5 8 6 18 4 22 -7
11 -31 10 -38 -1z"/>
<path d="M1747 154 c-14 -15 -6 -34 14 -34 14 0 19 5 17 17 -3 18 -20 27 -31
17z"/>
<path d="M754 139 c-8 -14 11 -33 25 -25 16 10 13 36 -3 36 -8 0 -18 -5 -22
-11z"/>
<path d="M814 119 c-10 -17 13 -36 27 -22 12 12 4 33 -11 33 -5 0 -12 -5 -16
-11z"/>
<path d="M1682 113 c2 -10 10 -18 18 -18 8 0 16 8 18 18 2 12 -3 17 -18 17
-15 0 -20 -5 -18 -17z"/>
<path d="M877 104 c-14 -14 -7 -35 11 -32 9 2 17 10 17 17 0 16 -18 25 -28 15z"/>
<path d="M1624 99 c-8 -14 11 -33 25 -25 6 4 11 14 11 22 0 16 -26 19 -36 3z"/>
<path d="M934 79 c-8 -14 11 -33 25 -25 16 10 13 36 -3 36 -8 0 -18 -5 -22
-11z"/>
<path d="M1562 73 c2 -10 10 -18 18 -18 8 0 16 8 18 18 2 12 -3 17 -18 17 -15
0 -20 -5 -18 -17z"/>
<path d="M1001 66 c-12 -14 -5 -26 16 -26 15 0 18 26 4 34 -5 3 -14 0 -20 -8z"/>
<path d="M1447 63 c-13 -12 -7 -33 8 -33 8 0 15 9 15 20 0 20 -11 26 -23 13z"/>
<path d="M1500 55 c0 -8 9 -15 20 -15 11 0 20 7 20 15 0 8 -9 15 -20 15 -11 0
-20 -7 -20 -15z"/>
<path d="M1056 51 c-3 -5 0 -14 8 -20 10 -8 16 -8 25 2 6 8 8 17 4 20 -9 10
-31 9 -37 -2z"/>
<path d="M1127 54 c-14 -14 -7 -35 11 -32 9 2 17 10 17 17 0 16 -18 25 -28 15z"/>
<path d="M1375 51 c-8 -15 3 -31 21 -31 9 0 14 7 12 17 -4 20 -24 28 -33 14z"/>
<path d="M1184 39 c-8 -14 11 -33 25 -25 16 10 13 36 -3 36 -8 0 -18 -5 -22
-11z"/>
<path d="M1250 30 c0 -23 25 -27 33 -6 7 16 -1 26 -20 26 -7 0 -13 -9 -13 -20z"/>
<path d="M1312 33 c2 -10 10 -18 18 -18 22 0 18 29 -3 33 -14 3 -18 -1 -15
-15z"/>
</g>
</svg>
